<?xml version="1.0" standalone="no"?><!DOCTYPE svg PUBLIC "-//W3C//DTD SVG 1.1//EN" "http://www.w3.org/Graphics/SVG/1.1/DTD/svg11.dtd"><svg class="icon" width="64px" height="60.24px" viewBox="0 0 1088 1024" version="1.1" xmlns="http://www.w3.org/2000/svg"><path fill="#3783d1" d="M869.12 720v106.56l-148.544-148.608V482.304c0-11.264-6.4-21.568-16.448-26.624L542.272 374.784V209.728l76.8 76.864 42.048-42.048-121.408-121.408a38.4 38.4 0 0 0-54.272 0L364.032 244.544l41.984 42.048 76.8-76.8v164.992L321.088 455.68a29.696 29.696 0 0 0-16.448 26.624v195.648l-148.544 148.608V720h-59.456v169.6a38.4 38.4 0 0 0 38.4 38.4h169.6v-59.456H198.016l142.08-142.08 159.168 79.552c8.384 4.16 18.24 4.16 26.624 0l159.104-79.552 142.08 142.08H720.64v59.456h169.6a38.4 38.4 0 0 0 38.4-38.4v-169.6h-59.456z m-386.24 11.328L364.032 672V530.368l118.848 59.456v141.504z m29.696-193.152l-111.808-55.872 111.808-55.936 111.808 55.936-111.808 55.872z m148.544 133.76l-118.848 59.392V589.824l118.848-59.456v141.568z"  /></svg>