<?xml version="1.0" standalone="no"?><!DOCTYPE svg PUBLIC "-//W3C//DTD SVG 1.1//EN" "http://www.w3.org/Graphics/SVG/1.1/DTD/svg11.dtd"><svg class="icon" width="64px" height="60.24px" viewBox="0 0 1088 1024" version="1.1" xmlns="http://www.w3.org/2000/svg"><path fill="#3783d1" d="M200.576 134.4v755.2a38.4 38.4 0 0 0 38.4 38.4h547.2a38.4 38.4 0 0 0 38.4-38.4V134.4a38.4 38.4 0 0 0-38.4-38.4h-547.2a38.4 38.4 0 0 0-38.4 38.4z m561.6 734.144h-499.2V512h499.2v356.544z m0-416h-499.2V333.696h499.2v118.848zM574.976 601.152v59.392h-124.8v-59.392h124.8z m187.2-445.696v118.848h-499.2V155.456h499.2z"  /></svg>