<?xml version="1.0" standalone="no"?><!DOCTYPE svg PUBLIC "-//W3C//DTD SVG 1.1//EN" "http://www.w3.org/Graphics/SVG/1.1/DTD/svg11.dtd"><svg class="icon" width="64px" height="64.00px" viewBox="0 0 1024 1024" version="1.1" xmlns="http://www.w3.org/2000/svg"><path fill="#3783d1" d="M509.349647 127.216941a1053.575529 1053.575529 0 0 0 318.524235 80.052706l2.770824 0.240941v466.401883c0 33.430588-20.781176 63.427765-52.10353 75.173647l-269.191529 100.954353-269.131294-100.954353a80.293647 80.293647 0 0 1-52.103529-75.173647V207.510588l18.974117-1.626353A927.503059 927.503059 0 0 0 483.147294 138.541176l26.202353-11.324235z m125.771294 226.906353L491.881412 497.302588 405.504 410.925176l-56.741647 56.801883 141.974588 141.974588 1.204706-1.204706 1.204706 1.204706 198.776471-198.776471-56.801883-56.801882z"  /></svg>