<?xml version="1.0" standalone="no"?><!DOCTYPE svg PUBLIC "-//W3C//DTD SVG 1.1//EN" "http://www.w3.org/Graphics/SVG/1.1/DTD/svg11.dtd"><svg class="icon" width="64px" height="64.00px" viewBox="0 0 1024 1024" version="1.1" xmlns="http://www.w3.org/2000/svg"><path fill="#3783d1" d="M142.734222 199.452444v625.095112a34.133333 34.133333 0 0 0 34.133334 34.133333h671.288888a34.133333 34.133333 0 0 0 34.133334-34.133333V199.452444a34.133333 34.133333 0 0 0-34.133334-34.133333h-671.288888a34.133333 34.133333 0 0 0-34.133334 34.133333z m501.816889 139.207112h184.888889v120.035555h-184.888889v-120.035555z m-264.078222 466.659555h-184.888889V682.666667h184.888889v122.652444z m0-175.957333h-184.888889V512h184.888889v117.361778z m0-170.666667h-184.888889v-120.035555h184.888889v120.035555z m211.285333 346.624H433.265778V682.666667h158.492444v122.652444z m0-175.957333H433.265778V512h158.492444v117.361778z m0-170.666667H433.265778v-120.035555h158.492444v120.035555z m237.681778 346.624h-184.888889V682.666667h184.888889v122.652444z m0-175.957333h-184.888889V512h184.888889v117.361778z"  /><path fill="#3783d1" d="M142.734222 199.452444v150.755556h739.555556v-150.755556a34.133333 34.133333 0 0 0-34.133334-34.133333h-671.288888a34.133333 34.133333 0 0 0-34.133334 34.133333z"  /></svg>