<?xml version="1.0" standalone="no"?><!DOCTYPE svg PUBLIC "-//W3C//DTD SVG 1.1//EN" "http://www.w3.org/Graphics/SVG/1.1/DTD/svg11.dtd"><svg class="icon" width="64px" height="60.24px" viewBox="0 0 1088 1024" version="1.1" xmlns="http://www.w3.org/2000/svg"><path fill="#3783d1" d="M750.4 83.52L491.52 302.016l-49.344-49.344a38.4 38.4 0 0 0-54.336 0L253.12 387.328a38.4 38.4 0 0 0 0 54.336l142.592 142.528-262.912 262.912 45.248 45.248L440.96 629.44l142.528 142.592a38.4 38.4 0 0 0 54.336 0l134.656-134.72a38.4 38.4 0 0 0 0-54.336l-49.28-49.28 218.432-258.944a38.4 38.4 0 0 0-2.176-51.84l-137.152-137.216a38.4 38.4 0 0 0-51.904-2.176z m127.168 167.936l-241.28 285.888 72.832 72.832-98.496 98.496-294.144-294.208 98.56-98.432 72.768 72.832 285.888-241.28 103.872 103.872z"  fill-opacity=".9" /></svg>