<?xml version="1.0" standalone="no"?><!DOCTYPE svg PUBLIC "-//W3C//DTD SVG 1.1//EN" "http://www.w3.org/Graphics/SVG/1.1/DTD/svg11.dtd"><svg class="icon" width="64px" height="60.24px" viewBox="0 0 1088 1024" version="1.1" xmlns="http://www.w3.org/2000/svg"><path fill="#3783d1" d="M513.152 64a448 448 0 1 1 0 896 448 448 0 0 1 0-896z m0 64a384 384 0 1 0 0 768 384 384 0 0 0 0-768z m-99.2 178.944l326.4 188.416a19.2 19.2 0 0 1 0 33.28l-326.4 188.416a19.2 19.2 0 0 1-28.8-16.64V323.52a19.2 19.2 0 0 1 28.8-16.64z"  fill-opacity=".9" /></svg>