<?xml version="1.0" standalone="no"?><!DOCTYPE svg PUBLIC "-//W3C//DTD SVG 1.1//EN" "http://www.w3.org/Graphics/SVG/1.1/DTD/svg11.dtd"><svg class="icon" width="64px" height="64.00px" viewBox="0 0 1024 1024" version="1.1" xmlns="http://www.w3.org/2000/svg"><path fill="#3783d1" d="M784.685176 125.289412a60.235294 60.235294 0 0 1 60.235295 60.235294v602.352941a60.235294 60.235294 0 0 1-60.235295 60.235294h-602.352941a60.235294 60.235294 0 0 1-60.235294-60.235294v-602.352941a60.235294 60.235294 0 0 1 60.235294-60.235294h602.352941z m0 240.941176h-602.352941v421.647059h602.352941v-421.647059z m-180.705882 240.941177v60.235294h-361.411765v-60.235294h361.411765z m60.235294-150.588236v60.235295h-421.647059v-60.235295h421.647059z m120.470588-271.058823h-602.352941v120.470588h602.352941v-120.470588z"  fill-opacity=".9" /></svg>