<?xml version="1.0" standalone="no"?><!DOCTYPE svg PUBLIC "-//W3C//DTD SVG 1.1//EN" "http://www.w3.org/Graphics/SVG/1.1/DTD/svg11.dtd"><svg class="icon" width="64px" height="60.24px" viewBox="0 0 1088 1024" version="1.1" xmlns="http://www.w3.org/2000/svg"><path fill="#3783d1" d="M512.512 189.952l13.12 0.32A280.64 280.64 0 0 1 787.84 417.28a210.048 210.048 0 0 1-36.992 416.832H274.304a210.048 210.048 0 0 1-36.992-416.832A280.704 280.704 0 0 1 499.2 190.336l13.312-0.384z m0.064 56.064l-12.288 0.32a224.704 224.704 0 0 0-208 181.504l-7.232 37.632-37.76 6.848a154.048 154.048 0 0 0 27.136 305.664h476.416a154.048 154.048 0 0 0 27.008-305.664l-37.76-6.848-7.296-37.632a224.64 224.64 0 0 0-220.16-181.824z m56 363.968v56h-224v-56h224z m112-112v56h-336v-56h336z"  /></svg>