<?xml version="1.0" standalone="no"?><!DOCTYPE svg PUBLIC "-//W3C//DTD SVG 1.1//EN" "http://www.w3.org/Graphics/SVG/1.1/DTD/svg11.dtd"><svg class="icon" width="64px" height="60.24px" viewBox="0 0 1088 1024" version="1.1" xmlns="http://www.w3.org/2000/svg"><path fill="#3783d1" d="M575.616 95.296c229.76 0 416 186.56 416 416.704S805.376 928.704 575.616 928.704 159.616 742.144 159.616 512 345.856 95.296 575.616 95.296z m0 64A352.384 352.384 0 0 0 223.616 512 352.384 352.384 0 0 0 575.616 864.704c194.368 0 352-157.888 352-352.704A352.384 352.384 0 0 0 575.616 159.296z"  /><path fill="#3783d1" d="M447.616 512a128.256 128 90 1 0 256 0 128.256 128 90 1 0-256 0Z"  /><path fill="#3783d1" d="M575.616 354.944c86.656 0 156.8 70.336 156.8 157.056A156.992 156.992 0 0 1 575.616 669.12c-86.656 0-156.8-70.4-156.8-157.12A156.992 156.992 0 0 1 575.616 354.944z m0 57.664c-54.72 0-99.2 44.48-99.2 99.392S520.96 611.392 575.616 611.392c54.72 0 99.2-44.48 99.2-99.392S630.272 412.608 575.616 412.608z"  /></svg>