<?xml version="1.0" standalone="no"?><!DOCTYPE svg PUBLIC "-//W3C//DTD SVG 1.1//EN" "http://www.w3.org/Graphics/SVG/1.1/DTD/svg11.dtd"><svg class="icon" width="64px" height="60.24px" viewBox="0 0 1088 1024" version="1.1" xmlns="http://www.w3.org/2000/svg"><path fill="#3783d1" d="M277.248 109.056a117.632 117.632 0 1 1 0 235.2 117.632 117.632 0 0 1 0-235.2z m0 64a53.632 53.632 0 1 0 0 107.2 53.632 53.632 0 0 0 0-107.2z m0 221.312a117.632 117.632 0 1 1 0 235.2 117.632 117.632 0 0 1 0-235.2z m0 64a53.632 53.632 0 1 0 0 107.2 53.632 53.632 0 0 0 0-107.2z m0 221.376a117.632 117.632 0 1 1 0 235.2 117.632 117.632 0 0 1 0-235.2z m0 64a53.632 53.632 0 1 0 0 107.2 53.632 53.632 0 0 0 0-107.2z m187.776-485.12H959.616v-64H465.024v64z m0 285.376H959.616v-64H465.024v64z m0 285.312H959.616v-64H465.024v64z"  /><path fill="#3783d1" d="M246.08 195.456m32 0l0 0q32 0 32 32l0 0q0 32-32 32l0 0q-32 0-32-32l0 0q0-32 32-32Z"  /></svg>