<?xml version="1.0" standalone="no"?><!DOCTYPE svg PUBLIC "-//W3C//DTD SVG 1.1//EN" "http://www.w3.org/Graphics/SVG/1.1/DTD/svg11.dtd"><svg class="icon" width="64px" height="60.24px" viewBox="0 0 1088 1024" version="1.1" xmlns="http://www.w3.org/2000/svg"><path fill="#3783d1" d="M861.184 377.408a70.4 70.4 0 0 1 70.4 70.4v307.904a70.4 70.4 0 0 1-70.4 70.4h-640a70.4 70.4 0 0 1-70.4-70.4v-307.84a70.4 70.4 0 0 1 70.4-70.4h640z m0 64h-640a6.4 6.4 0 0 0-6.4 6.4v307.904a6.4 6.4 0 0 0 6.4 6.4h640a6.4 6.4 0 0 0 6.4-6.4v-307.84a6.4 6.4 0 0 0-6.4-6.4z m-704-211.52H389.12v102.592H157.184z m268.032 0h231.936v102.592H425.216z m268.032 0h231.936v102.592h-231.936z"  /></svg>