<?xml version="1.0" standalone="no"?><!DOCTYPE svg PUBLIC "-//W3C//DTD SVG 1.1//EN" "http://www.w3.org/Graphics/SVG/1.1/DTD/svg11.dtd"><svg class="icon" width="64px" height="64.00px" viewBox="0 0 1024 1024" version="1.1" xmlns="http://www.w3.org/2000/svg"><path fill="#3783d1" d="M724.389647 125.168941v120.470588h60.235294c33.490824 0 60.235294 26.744471 60.235294 60.235295v301.17647c0 33.551059-26.744471 60.235294-60.235294 60.235294h-60.235294v180.705883h-481.882353v-180.705883h-60.235294c-33.490824 0-60.235294-26.684235-60.235294-60.235294v-301.17647c0-33.490824 26.744471-60.235294 60.235294-60.235295h60.235294v-120.470588h481.882353z m-60.235294 421.647059h-361.411765v240.941176h361.411765v-240.941176z m120.470588-240.941176h-602.352941v301.17647h60.235294v-120.470588h481.882353v120.470588h60.235294v-301.17647z m-120.470588-120.470589h-361.411765v60.235294h361.411765v-60.235294z"  fill-opacity=".9" /></svg>