<?xml version="1.0" standalone="no"?><!DOCTYPE svg PUBLIC "-//W3C//DTD SVG 1.1//EN" "http://www.w3.org/Graphics/SVG/1.1/DTD/svg11.dtd"><svg class="icon" width="64px" height="64.00px" viewBox="0 0 1024 1024" version="1.1" xmlns="http://www.w3.org/2000/svg"><path fill="#3783d1" d="M332.920471 908.348235h301.17647v-60.235294h-301.17647zM483.508706 65.054118c166.610824 0 301.176471 134.505412 301.17647 301.17647 0 82.763294-33.370353 158.418824-88.244705 212.751059a284.310588 284.310588 0 0 1-62.34353 47.947294v100.653177a60.235294 60.235294 0 0 1-60.235294 60.235294h-180.705882a60.235294 60.235294 0 0 1-60.235294-60.235294v-100.592942a284.310588 284.310588 0 0 1-62.34353-48.007529 298.586353 298.586353 0 0 1-88.244706-212.811294c0-82.823529 33.430588-158.479059 88.304941-212.811294a298.586353 298.586353 0 0 1 212.87153-88.365177z m0 60.235294a238.351059 238.351059 0 0 0-170.104471 70.475294 238.531765 238.531765 0 0 0-70.836706 170.465882c0 66.439529 26.804706 126.855529 70.53553 170.104471 18.311529 18.793412 39.514353 33.731765 63.427765 45.658353l16.624941 8.31247v137.336471h180.705882V590.305882l16.624941-8.31247c23.913412-11.926588 45.176471-26.864941 62.945883-45.176471a238.712471 238.712471 0 0 0 71.017411-170.646588c0-133.300706-107.580235-240.941176-240.941176-240.941177z"  fill-opacity=".9" /></svg>