<?xml version="1.0" standalone="no"?><!DOCTYPE svg PUBLIC "-//W3C//DTD SVG 1.1//EN" "http://www.w3.org/Graphics/SVG/1.1/DTD/svg11.dtd"><svg class="icon" width="64px" height="60.24px" viewBox="0 0 1088 1024" version="1.1" xmlns="http://www.w3.org/2000/svg"><path fill="#3783d1" d="M400 336.256l45.248-45.248 198.4 198.4a32 32 0 0 1 0 45.248l-198.4 198.336-45.248-45.248L543.68 544H65.152v-64h478.528L400 336.256zM257.152 192h512v640h-512v-128h-64v160a32 32 0 0 0 32 32h576a32 32 0 0 0 32-32v-704a32 32 0 0 0-32-32h-576a32 32 0 0 0-32 32V320h64V192z"  fill-opacity=".9" /></svg>