<?xml version="1.0" standalone="no"?><!DOCTYPE svg PUBLIC "-//W3C//DTD SVG 1.1//EN" "http://www.w3.org/Graphics/SVG/1.1/DTD/svg11.dtd"><svg class="icon" width="64px" height="60.24px" viewBox="0 0 1088 1024" version="1.1" xmlns="http://www.w3.org/2000/svg"><path fill="#3783d1" d="M418.112 119.744l10.624 5.888 217.984 121.152 217.152-72.32 42.112-14.08V307.2h-64v-58.048l-33.728 11.264-154.56 51.52-13.312 4.48-12.288-6.848-219.84-122.176-193.536 43.008v523.328l191.552-42.56 11.84-2.624 10.624 5.888 217.984 121.152 46.72-15.488 20.224 60.672-59.968 19.968-13.312 4.48-12.288-6.848-219.84-122.176-218.496 48.64-38.912 8.64V179.2l24.96-5.568 230.4-51.2 11.904-2.624zM905.984 486.4v76.8h-64V486.4h64z"  /><path fill="#3783d1" d="M873.984 448a53.312 53.312 0 1 0 0-106.688 53.312 53.312 0 0 0 0 106.688z"  /><path fill="#3783d1" d="M946.176 790.784H800.64c2.304 34.304 22.976 51.392 62.08 51.392 24.32 0 45.888-5.952 64.576-17.92v47.36c-20.16 11.328-46.528 16.96-79.232 16.96-35.2 0-62.592-9.92-82.112-29.76-19.52-19.84-29.312-47.552-29.312-83.008 0-35.328 10.432-64 31.232-86.08a103.232 103.232 0 0 1 78.4-33.152c31.36 0 55.808 9.536 73.472 28.544 17.664 19.008 26.496 45.056 26.496 78.272v27.392z m-60.16-40.384c0-33.088-13.44-49.6-40.192-49.6a39.36 39.36 0 0 0-29.44 13.632c-8.512 9.024-13.824 21.056-16 35.968h85.632zM445.184 742.4V153.6h-64v588.8zM675.584 870.4V281.6h-64v588.8z"  /></svg>