<?xml version="1.0" standalone="no"?><!DOCTYPE svg PUBLIC "-//W3C//DTD SVG 1.1//EN" "http://www.w3.org/Graphics/SVG/1.1/DTD/svg11.dtd"><svg class="icon" width="64px" height="60.24px" viewBox="0 0 1088 1024" version="1.1" xmlns="http://www.w3.org/2000/svg"><path fill="#3783d1" d="M847.168 625.344a64 64 0 0 0 62.08-79.552l-96-384a64 64 0 0 0-62.08-48.448H193.152a64 64 0 0 0-64 64v320a64 64 0 0 0 64 64h128l128 320h128a64 64 0 0 0 64-64v-192h206.08z m-462.016-448h366.08l96 384h-270.08v256H492.48L385.152 548.992V177.344z m-192 320v-320h128v320h-128z"  fill-opacity=".9" /></svg>