<?xml version="1.0" standalone="no"?><!DOCTYPE svg PUBLIC "-//W3C//DTD SVG 1.1//EN" "http://www.w3.org/Graphics/SVG/1.1/DTD/svg11.dtd"><svg class="icon" width="64px" height="60.24px" viewBox="0 0 1088 1024" version="1.1" xmlns="http://www.w3.org/2000/svg"><path fill="#3783d1" d="M577.152 128a64 64 0 0 1 64 64v192h206.08a64 64 0 0 1 62.08 79.552l-96 384a64 64 0 0 1-62.08 48.448h-558.08a64 64 0 0 1-64-64V512a64 64 0 0 1 64-64h128l128-320h128z m0 64H492.48L385.152 460.352V832h366.08l96-384h-270.08V192z m-256 320h-128v320h128V512z"  fill-opacity=".9" /></svg>