<?xml version="1.0" standalone="no"?><!DOCTYPE svg PUBLIC "-//W3C//DTD SVG 1.1//EN" "http://www.w3.org/Graphics/SVG/1.1/DTD/svg11.dtd"><svg class="icon" width="64px" height="60.24px" viewBox="0 0 1088 1024" version="1.1" xmlns="http://www.w3.org/2000/svg"><path fill="#3783d1" d="M513.728 96a317.44 317.44 0 0 1 317.44 317.44c0 115.584-98.432 281.472-294.272 503.68l-24.064 27.328-24-27.392C294.144 694.848 196.288 528.96 196.288 413.44a317.44 317.44 0 0 1 317.44-317.44z m0 64a253.44 253.44 0 0 0-253.44 253.44c0 88.64 80.384 230.656 242.048 421.312l10.624 12.416 10.752-12.48c156.992-184.064 237.824-322.816 243.2-411.84l0.256-9.408a253.44 253.44 0 0 0-253.44-253.44z"  /><path fill="#3783d1" d="M513.728 242.304a164.992 164.992 0 1 1 0 329.984 164.992 164.992 0 0 1 0-329.984z m0 64a100.992 100.992 0 1 0 0 201.984 100.992 100.992 0 0 0 0-201.984z"  /></svg>