<?xml version="1.0" standalone="no"?><!DOCTYPE svg PUBLIC "-//W3C//DTD SVG 1.1//EN" "http://www.w3.org/Graphics/SVG/1.1/DTD/svg11.dtd"><svg class="icon" width="64px" height="60.24px" viewBox="0 0 1088 1024" version="1.1" xmlns="http://www.w3.org/2000/svg"><path fill="#3783d1" d="M513.728 64a441.6 441.6 0 0 1 441.6 441.6v12.8a441.6 441.6 0 0 1-883.2 0v-12.8a441.6 441.6 0 0 1 441.6-441.6z m376.768 480h-192a631.296 631.296 0 0 1-125.184 347.328A377.728 377.728 0 0 0 890.496 544z m-561.536 0h-192a377.728 377.728 0 0 0 317.184 347.328A631.296 631.296 0 0 1 328.96 544z m305.472 0H392.96a567.36 567.36 0 0 0 120.704 319.808A567.36 567.36 0 0 0 634.432 544z m-61.12-411.328A631.296 631.296 0 0 1 698.496 480h192a377.728 377.728 0 0 0-317.184-347.328z m-59.584 27.52A567.36 567.36 0 0 0 393.024 480h241.408a567.36 567.36 0 0 0-120.704-319.808z m-59.52-27.52A377.728 377.728 0 0 0 136.96 480h192a631.296 631.296 0 0 1 125.184-347.328z"  fill-opacity=".9" /></svg>