<?xml version="1.0" standalone="no"?><!DOCTYPE svg PUBLIC "-//W3C//DTD SVG 1.1//EN" "http://www.w3.org/Graphics/SVG/1.1/DTD/svg11.dtd"><svg class="icon" width="64px" height="64.00px" viewBox="0 0 1024 1024" version="1.1" xmlns="http://www.w3.org/2000/svg"><path fill="#3783d1" d="M414.479059 175.706353l9.999059 6.023529 187.934117 112.64 186.970353-74.691764 41.261177-16.504471v546.755765l-18.913883 7.589647-200.764235 80.293647-13.854118 5.541647-12.830117-7.649882-190.825412-114.507295-189.379765 37.888-36.020706 7.228236v-543.322353l24.214589-4.818824 200.82447-40.176941 11.444706-2.288941z m-11.023059 63.608471l-165.165176 33.008941v420.442353l164.803764-32.888471 11.444706-2.288941 9.938824 6.023529 187.934117 112.64 168.056471-67.102117V292.080941l-159.503059 63.849412-13.854118 5.541647-12.830117-7.649882-190.825412-114.507294z"  /><path fill="#3783d1" d="M439.115294 689.392941v-481.882353h-60.235294v481.882353zM639.879529 809.863529v-481.882353h-60.235294v481.882353z"  /></svg>