<?xml version="1.0" standalone="no"?><!DOCTYPE svg PUBLIC "-//W3C//DTD SVG 1.1//EN" "http://www.w3.org/Graphics/SVG/1.1/DTD/svg11.dtd"><svg class="icon" width="64px" height="60.24px" viewBox="0 0 1088 1024" version="1.1" xmlns="http://www.w3.org/2000/svg"><path fill="#3783d1" d="M912 104.512a70.4 70.4 0 0 1 70.4 70.4v674.176a70.4 70.4 0 0 1-70.4 70.4H239.232a70.4 70.4 0 0 1-70.4-70.4V174.912a70.4 70.4 0 0 1 70.4-70.4H912z m0 64H239.232a6.4 6.4 0 0 0-6.4 6.4v674.176a6.4 6.4 0 0 0 6.4 6.4H912a6.4 6.4 0 0 0 6.4-6.4V174.912a6.4 6.4 0 0 0-6.4-6.4z m-95.808 152.32l45.312 45.184L524.224 704l-22.656 22.72-22.656-22.72-182.016-182.4 45.312-45.184 159.36 159.68 314.624-315.2z"  /></svg>