<?xml version="1.0" standalone="no"?><!DOCTYPE svg PUBLIC "-//W3C//DTD SVG 1.1//EN" "http://www.w3.org/Graphics/SVG/1.1/DTD/svg11.dtd"><svg class="icon" width="64px" height="64.00px" viewBox="0 0 1024 1024" version="1.1" xmlns="http://www.w3.org/2000/svg"><path fill="#3783d1" d="M359.664941 590.305882L316.536471 548.141176 483.689412 384.301176l168.598588 164.442353-43.008 42.164706-95.111529-92.762353v229.496471h-60.837647V498.386824L359.604706 590.305882z m334.607059-254.313411v-60.235295h-421.647059v60.235295h421.647059z"  fill-opacity=".9" /><path fill="#3783d1" d="M784.624941 125.168941a60.235294 60.235294 0 0 1 60.235294 60.235294v602.352941a60.235294 60.235294 0 0 1-60.235294 60.235295h-602.352941a60.235294 60.235294 0 0 1-60.235294-60.235295v-602.352941a60.235294 60.235294 0 0 1 60.235294-60.235294z m0 60.235294h-602.352941v602.352941h602.352941v-602.352941z"  fill-opacity=".9" /></svg>