<?xml version="1.0" standalone="no"?><!DOCTYPE svg PUBLIC "-//W3C//DTD SVG 1.1//EN" "http://www.w3.org/Graphics/SVG/1.1/DTD/svg11.dtd"><svg class="icon" width="64px" height="60.24px" viewBox="0 0 1088 1024" version="1.1" xmlns="http://www.w3.org/2000/svg"><path fill="#3783d1" d="M263.68 296.32v66.432H147.648v530.88h729.984V362.752h-116.16V296.32h149.376c18.304 0 33.152 14.848 33.152 33.152v597.312a33.152 33.152 0 0 1-33.152 33.152H114.368a33.152 33.152 0 0 1-33.152-33.152V329.536c0-18.304 14.848-33.152 33.152-33.152h149.376z m514.368 431.36v66.432H247.04V727.68h530.944z m0-199.04v66.368H247.04V528.64h530.944zM527.552 67.776a32.96 32.96 0 0 1 11.392 9.344l129.6 129.664a31.872 31.872 0 0 1 0 46.464 31.168 31.168 0 0 1-23.232 9.92 31.168 31.168 0 0 1-23.232-9.92L545.728 177.408v284.864H479.424L479.36 177.344 403.072 253.248a32.832 32.832 0 1 1-46.464-46.464l129.6-129.664a33.28 33.28 0 0 1 10.88-9.152l3.904-1.792a32.256 32.256 0 0 1 22.848-0.128l3.712 1.728z" /></svg>