<?xml version="1.0" standalone="no"?><!DOCTYPE svg PUBLIC "-//W3C//DTD SVG 1.1//EN" "http://www.w3.org/Graphics/SVG/1.1/DTD/svg11.dtd"><svg class="icon" width="64px" height="60.24px" viewBox="0 0 1088 1024" version="1.1" xmlns="http://www.w3.org/2000/svg"><path fill="#3783d1" d="M810.88 75.136a70.4 70.4 0 0 1 103.872 73.024l-106.496 638.848a70.4 70.4 0 0 1-99.712 51.968L523.52 750.848l27.52-57.792 185.088 88.128a6.4 6.4 0 0 0 9.088-4.736l106.496-638.784a6.4 6.4 0 0 0-9.472-6.656L176.704 503.68a6.4 6.4 0 0 0 0.384 11.328l112.064 53.376-27.52 57.792-112-53.376a70.4 70.4 0 0 1-4.16-124.992L810.88 75.136zM839.68 75.648l49.344 40.704-440.704 534.976V928h-64V628.48l7.296-8.832z" /></svg>