<?xml version="1.0" standalone="no"?><!DOCTYPE svg PUBLIC "-//W3C//DTD SVG 1.1//EN" "http://www.w3.org/Graphics/SVG/1.1/DTD/svg11.dtd"><svg class="icon" width="64px" height="64.00px" viewBox="0 0 1024 1024" version="1.1" xmlns="http://www.w3.org/2000/svg"><path fill="#3784d1" d="M213.333333 810.666667v85.333333a85.333333 85.333333 0 0 1-85.333333-85.333333h85.333333z m170.666667 0v85.333333H298.666667v-85.333333h85.333333z m170.666667 0v85.333333h-85.333334v-85.333333h85.333334z m170.666666 0v85.333333h-85.333333v-85.333333h85.333333z m170.666667 0a85.333333 85.333333 0 0 1-78.933333 85.12L810.666667 896v-85.333333h85.333333zM341.333333 384v298.666667h298.666667v42.666666a42.666667 42.666667 0 0 1-42.666667 42.666667H298.666667a42.666667 42.666667 0 0 1-42.666667-42.666667v-298.666666a42.666667 42.666667 0 0 1 42.666667-42.666667h42.666666z m-128 256v85.333333H128v-85.333333h85.333333z m682.666667 0v85.333333h-85.333333v-85.333333h85.333333z m-170.666667-384a42.666667 42.666667 0 0 1 42.666667 42.666667v298.666666a42.666667 42.666667 0 0 1-42.666667 42.666667h-298.666666a42.666667 42.666667 0 0 1-42.666667-42.666667V298.666667a42.666667 42.666667 0 0 1 42.666667-42.666667h298.666666zM213.333333 469.333333v85.333334H128v-85.333334h85.333333z m682.666667 0v85.333334h-85.333333v-85.333334h85.333333zM213.333333 298.666667v85.333333H128V298.666667h85.333333z m682.666667 0v85.333333h-85.333333V298.666667h85.333333zM213.333333 128v85.333333H128a85.333333 85.333333 0 0 1 78.933333-85.12L213.333333 128z m597.333334 0a85.333333 85.333333 0 0 1 85.12 78.933333L896 213.333333h-85.333333V128z m-85.333334 0v85.333333h-85.333333V128h85.333333z m-170.666666 0v85.333333h-85.333334V128h85.333334zM384 128v85.333333H298.666667V128h85.333333z"  /></svg>