<?xml version="1.0" standalone="no"?><!DOCTYPE svg PUBLIC "-//W3C//DTD SVG 1.1//EN" "http://www.w3.org/Graphics/SVG/1.1/DTD/svg11.dtd"><svg class="icon" width="64px" height="64.00px" viewBox="0 0 1024 1024" version="1.1" xmlns="http://www.w3.org/2000/svg"><path fill="#3783d1" d="M378.88 125.289412h399.480471c36.743529 0 66.56 29.756235 66.56 66.56v399.420235c0 36.743529-29.816471 66.620235-66.56 66.620235H378.88c-36.743529 0-66.56-29.816471-66.56-66.620235V191.849412c0-36.743529 29.816471-66.620235 66.56-66.620236z m0 57.042823a9.517176 9.517176 0 0 0-9.517176 9.517177v399.420235c0 5.300706 4.276706 9.517176 9.517176 9.517177h399.480471c5.240471 0 9.517176-4.216471 9.517176-9.517177V191.849412a9.517176 9.517176 0 0 0-9.517176-9.517177H378.88z m218.774588 504.048941h57.042824v95.171765c0 36.743529-29.816471 66.499765-66.56 66.499765H188.656941c-36.743529 0-66.56-29.756235-66.56-66.56V382.072471c0-36.743529 29.816471-66.620235 66.56-66.620236h95.171765v57.103059h-95.171765a9.517176 9.517176 0 0 0-9.517176 9.517177v399.420235c0 5.240471 4.276706 9.517176 9.517176 9.517176h399.480471c5.240471 0 9.517176-4.216471 9.517176-9.517176v-95.11153z"  /></svg>