<?xml version="1.0" standalone="no"?><!DOCTYPE svg PUBLIC "-//W3C//DTD SVG 1.1//EN" "http://www.w3.org/Graphics/SVG/1.1/DTD/svg11.dtd"><svg class="icon" width="64px" height="60.24px" viewBox="0 0 1088 1024" version="1.1" xmlns="http://www.w3.org/2000/svg"><path fill="#3783d1" d="M704.064 96a70.4 70.4 0 0 1 70.4 70.4v46.912h-64V166.4a6.4 6.4 0 0 0-6.4-6.4H212.16a6.4 6.4 0 0 0-6.4 6.4v605.632a6.4 6.4 0 0 0 6.4 6.4l38.464-0.064V284.352a70.4 70.4 0 0 1 70.4-70.4h491.968a70.4 70.4 0 0 1 70.4 70.4V857.6a70.4 70.4 0 0 1-70.4 70.4H321.088a70.4 70.4 0 0 1-70.4-70.4v-15.232h-38.528a70.4 70.4 0 0 1-70.4-70.4V166.4a70.4 70.4 0 0 1 70.4-70.4h491.904z m108.928 181.952H321.088a6.4 6.4 0 0 0-6.4 6.4V857.6a6.4 6.4 0 0 0 6.4 6.4h491.904a6.4 6.4 0 0 0 6.4-6.4V284.352a6.4 6.4 0 0 0-6.4-6.4z m-83.136 416.896v64H368v-64h361.856z m-69.056-157.44v64H368v-64h292.8z m-122.24-157.568v64H368v-64h170.624z" /></svg>