<?xml version="1.0" standalone="no"?><!DOCTYPE svg PUBLIC "-//W3C//DTD SVG 1.1//EN" "http://www.w3.org/Graphics/SVG/1.1/DTD/svg11.dtd"><svg class="icon" width="64px" height="60.24px" viewBox="0 0 1088 1024" version="1.1" xmlns="http://www.w3.org/2000/svg"><path fill="#3783d1" d="M541.248 226.88a311.424 311.424 0 0 1 311.424 311.488v358.016H229.76V538.368A311.424 311.424 0 0 1 541.248 226.88z m0 64a247.424 247.424 0 0 0-247.488 247.488v293.952h494.848l0.064-293.952A247.488 247.488 0 0 0 553.984 291.2l-12.8-0.32z"  /><path fill="#3783d1" d="M168.64 831.744h745.216V896H168.64zM122.048 445.184h139.712V509.44H122.048zM820.672 445.184h139.712V509.44h-139.712zM571.008 128v139.712H506.752V128z"  /><path fill="#3783d1" d="M564.48 678.08v186.24h-46.528v-186.24z"  /><path fill="#3783d1" d="M541.248 413.184a148.48 148.48 0 1 1 0 296.896 148.48 148.48 0 0 1 0-296.896z m0 64a84.48 84.48 0 1 0 0 168.896 84.48 84.48 0 0 0 0-168.896z"  /><path fill="#3783d1" d="M261.76 212.288m-64 0a64 64 0 1 0 128 0 64 64 0 1 0-128 0Z"  /><path fill="#3783d1" d="M820.672 212.288m-64 0a64 64 0 1 0 128 0 64 64 0 1 0-128 0Z"  /></svg>