<?xml version="1.0" standalone="no"?><!DOCTYPE svg PUBLIC "-//W3C//DTD SVG 1.1//EN" "http://www.w3.org/Graphics/SVG/1.1/DTD/svg11.dtd"><svg class="icon" width="64px" height="64.00px" viewBox="0 0 1024 1024" version="1.1" xmlns="http://www.w3.org/2000/svg"><path fill="#3783d1" d="M509.349647 247.627294c96.978824 0 185.163294 51.440941 233.592471 133.481412l-51.922824 30.599529A210.823529 210.823529 0 0 0 298.526118 518.686118V769.686588L750.290824 769.686588v60.235294H238.290824V518.686118a271.058824 271.058824 0 0 1 271.058823-271.058824z"  /><path fill="#3783d1" d="M188.114824 771.674353h642.529882v60.235294H188.114824zM147.937882 438.392471h120.470589v60.235294H147.937882zM710.113882 478.569412H870.761412v60.235294H710.113882zM710.113882 568.922353H870.761412v60.235294H710.113882zM710.113882 659.275294H870.761412v60.235294H710.113882zM537.479529 167.333647v120.470588h-60.235294V167.333647z"  /><path fill="#3783d1" d="M539.467294 649.216v160.647529h-60.235294V649.216z"  /><path fill="#3783d1" d="M509.349647 408.274824a130.529882 130.529882 0 1 1 0 260.999529A130.529882 130.529882 0 0 1 509.349647 408.274824z m0 60.235294a70.294588 70.294588 0 1 0 0 140.528941A70.294588 70.294588 0 0 0 509.349647 468.510118z"  /><path fill="#3783d1" d="M268.408471 237.628235m-60.235295 0a60.235294 60.235294 0 1 0 120.470589 0 60.235294 60.235294 0 1 0-120.470589 0Z"  /><path fill="#3783d1" d="M750.290824 237.628235m-60.235295 0a60.235294 60.235294 0 1 0 120.470589 0 60.235294 60.235294 0 1 0-120.470589 0Z"  /></svg>