<?xml version="1.0" standalone="no"?><!DOCTYPE svg PUBLIC "-//W3C//DTD SVG 1.1//EN" "http://www.w3.org/Graphics/SVG/1.1/DTD/svg11.dtd"><svg class="icon" width="64px" height="60.24px" viewBox="0 0 1088 1024" version="1.1" xmlns="http://www.w3.org/2000/svg"><path fill="#3783d1" d="M189.184 776h704v128H189.184zM541.184 184C700.224 184 829.184 305.792 829.184 456V728H565.184V597.76a128 128 0 1 0-48 0V728H253.184V456C253.184 305.792 382.144 184 541.184 184z m0 224a64 64 0 1 1 0 128 64 64 0 0 1 0-128z"  /><path fill="#3783d1" d="M573.184 120v96H509.184V120zM189.184 424h112v64H189.184zM765.184 424h128v64H765.184z"  /><path fill="#3783d1" d="M802.88 173.696m-64 0a64 64 0 1 0 128 0 64 64 0 1 0-128 0Z"  /><path fill="#3783d1" d="M290.88 173.696m-64 0a64 64 0 1 0 128 0 64 64 0 1 0-128 0Z"  /></svg>