<?xml version="1.0" standalone="no"?><!DOCTYPE svg PUBLIC "-//W3C//DTD SVG 1.1//EN" "http://www.w3.org/Graphics/SVG/1.1/DTD/svg11.dtd"><svg class="icon" width="64px" height="64.00px" viewBox="0 0 1024 1024" version="1.1" xmlns="http://www.w3.org/2000/svg"><path fill="#3783d1" d="M784.685176 185.524706v542.117647h60.235295v-542.117647a60.235294 60.235294 0 0 0-60.235295-60.235294h-542.117647v60.235294h542.117647z m-120.470588 60.235294a60.235294 60.235294 0 0 1 60.235294 60.235294v481.882353a60.235294 60.235294 0 0 1-60.235294 60.235294h-481.882353a60.235294 60.235294 0 0 1-60.235294-60.235294v-481.882353a60.235294 60.235294 0 0 1 60.235294-60.235294h481.882353z m0 60.235294h-481.882353v481.882353h481.882353v-481.882353z m-205.824 40.116706v165.647059h165.647059v60.235294H458.390588v175.706353h-60.235294V571.994353H222.509176v-60.235294H398.155294v-165.647059h60.235294z"  fill-opacity=".9" /></svg>