<?xml version="1.0" standalone="no"?><!DOCTYPE svg PUBLIC "-//W3C//DTD SVG 1.1//EN" "http://www.w3.org/Graphics/SVG/1.1/DTD/svg11.dtd"><svg class="icon" width="64px" height="64.00px" viewBox="0 0 1024 1024" version="1.1" xmlns="http://www.w3.org/2000/svg"><path fill="#3784d1" d="M331.946667 374.058667l322.986666 347.946666c-12.629333 37.034667-26.794667 68.906667-42.496 95.701334-15.701333 26.794667-35.541333 52.906667-59.477333 78.293333l-119.893333-125.525333-79.530667-84.309334-58.624-62.976-42.154667-45.994666-42.538666-47.274667-28.714667-32.896-18.602667-22.058667-14.677333-18.218666-8.448-11.178667-4.394667-6.229333-3.413333-5.333334-2.474667-4.352A26.496 26.496 0 0 1 128 426.24l25.856-3.456 23.168-3.498667 10.538667-1.706666 19.072-3.498667c8.874667-1.706667 16.682667-3.498667 23.466666-5.248l6.485334-1.706667 14.592-4.309333 8.106666-2.56 17.962667-6.058667 20.224-7.210666 22.442667-8.32 12.032-4.608z m169.984-86.997334l238.08 243.584-67.797334 104.405334L406.272 348.586667l95.658667-61.525334z m326.698666-152.149333l4.096 3.584 53.333334 54.613333c13.226667 13.525333 13.226667 35.157333 0 48.64l-165.12 168.32-103.082667-103.594666 165.162667-168.106667a34.816 34.816 0 0 1 45.653333-3.456z"  /></svg>