<?xml version="1.0" standalone="no"?><!DOCTYPE svg PUBLIC "-//W3C//DTD SVG 1.1//EN" "http://www.w3.org/Graphics/SVG/1.1/DTD/svg11.dtd"><svg class="icon" width="64px" height="60.24px" viewBox="0 0 1088 1024" version="1.1" xmlns="http://www.w3.org/2000/svg"><path fill="#3783d1" d="M541.184 177.728a313.6 313.6 0 0 1 167.744 578.56l-7.808 4.736V928H381.184v-32L381.184 760.96l-7.744-4.672A313.408 313.408 0 0 1 227.968 506.24L227.584 491.328A313.6 313.6 0 0 1 541.184 177.728z m0 64a249.6 249.6 0 0 0-113.472 472l17.408 8.96V864H637.184V722.688l17.408-8.96A249.6 249.6 0 0 0 541.184 241.728z"  /><path fill="#3783d1" d="M541.184 352a134.4 134.4 0 1 1 0 268.8 134.4 134.4 0 0 1 0-268.8z m0 64a70.4 70.4 0 1 0 0 140.8 70.4 70.4 0 0 0 0-140.8z"  /><path fill="#3783d1" d="M208.384 179.2m-64 0a64 64 0 1 0 128 0 64 64 0 1 0-128 0Z"  /><path fill="#3783d1" d="M208.384 742.4m-64 0a64 64 0 1 0 128 0 64 64 0 1 0-128 0Z"  /><path fill="#3783d1" d="M873.984 179.2m-64 0a64 64 0 1 0 128 0 64 64 0 1 0-128 0Z"  /><path fill="#3783d1" d="M873.984 742.4m-64 0a64 64 0 1 0 128 0 64 64 0 1 0-128 0Z"  /><path fill="#3783d1" d="M509.184 588.8v332.8h64V588.8zM573.184 192V115.2h-64v76.8zM246.784 454.4H169.984v64h76.8zM912.384 454.4v64h-102.4v-64z"  /></svg>