<?xml version="1.0" standalone="no"?><!DOCTYPE svg PUBLIC "-//W3C//DTD SVG 1.1//EN" "http://www.w3.org/Graphics/SVG/1.1/DTD/svg11.dtd"><svg class="icon" width="64px" height="60.24px" viewBox="0 0 1088 1024" version="1.1" xmlns="http://www.w3.org/2000/svg"><path fill="#3783d1" d="M368.384 300.8v422.4H125.184V422.4h64l-0.064 236.8H304.384V364.736h-57.6V300.8z"  /><path fill="#3783d1" d="M701.184 129.216V894.72l-45.44-20.928-332.8-153.6-18.56-8.576V312.32l18.56-8.576 332.8-153.6 45.44-20.928zM637.184 229.12L368.32 353.216V670.72L637.184 794.816V229.12z"  /><path fill="#3783d1" d="M159.296 334.912m-64 0a64 64 0 1 0 128 0 64 64 0 1 0-128 0Z"  /><path fill="#3783d1" d="M950.784 480v64h-179.2v-64zM938.176 252.16l25.216 58.88-179.2 76.8-25.216-58.88 179.2-76.8zM784.192 636.16l179.2 76.8-25.216 58.88-179.2-76.8 25.216-58.88z"  /></svg>