<?xml version="1.0" standalone="no"?><!DOCTYPE svg PUBLIC "-//W3C//DTD SVG 1.1//EN" "http://www.w3.org/Graphics/SVG/1.1/DTD/svg11.dtd"><svg class="icon" width="64px" height="64.00px" viewBox="0 0 1024 1024" version="1.1" xmlns="http://www.w3.org/2000/svg"><path fill="#3783d1" d="M483.508706 65.054118a150.588235 150.588235 0 0 1 150.588235 150.588235v90.352941h120.470588a30.117647 30.117647 0 0 1 30.117647 30.117647v542.117647a30.117647 30.117647 0 0 1-30.117647 30.117647h-542.117647a30.117647 30.117647 0 0 1-30.117647-30.117647v-542.117647a30.117647 30.117647 0 0 1 30.117647-30.117647h120.470589v-90.352941a150.588235 150.588235 0 0 1 150.588235-150.588235z m-150.588235 301.17647h-90.352942v481.882353h481.882353v-481.882353h-90.352941v120.470588h-60.235294v-120.470588h-180.705882v120.470588h-60.235294v-120.470588z m150.588235-240.941176a90.352941 90.352941 0 0 0-90.352941 90.352941v90.352941h180.705882v-90.352941a90.352941 90.352941 0 0 0-90.352941-90.352941z"  fill-opacity=".9" /></svg>