<?xml version="1.0" standalone="no"?><!DOCTYPE svg PUBLIC "-//W3C//DTD SVG 1.1//EN" "http://www.w3.org/Graphics/SVG/1.1/DTD/svg11.dtd"><svg class="icon" width="64px" height="60.24px" viewBox="0 0 1088 1024" version="1.1" xmlns="http://www.w3.org/2000/svg"><path fill="#3783d1" d="M166.592 192l88.896 533.248a51.2 51.2 0 0 0 50.56 42.752h591.68v-64H316.864l-21.376-128h552.576a51.2 51.2 0 0 0 49.664-38.784l54.4-217.6A51.2 51.2 0 0 0 902.464 256H242.176l-14.208-85.248A51.2 51.2 0 0 0 177.408 128H65.792v64h100.864z m118.272 320l-32-192h633.216l-48 192H284.8z m68.864 368a48 48 0 1 0-96 0 48 48 0 0 0 96 0z m516.032 0a48 48 0 1 0-96 0 48 48 0 0 0 96 0z"  fill-opacity=".9" /></svg>