<?xml version="1.0" standalone="no"?><!DOCTYPE svg PUBLIC "-//W3C//DTD SVG 1.1//EN" "http://www.w3.org/Graphics/SVG/1.1/DTD/svg11.dtd"><svg class="icon" width="64px" height="60.24px" viewBox="0 0 1088 1024" version="1.1" xmlns="http://www.w3.org/2000/svg"><path fill="#3783d1" d="M907.904 450.112a132.608 132.608 0 1 1-56.128 252.8l-263.104 263.04-45.248-45.184 55.808-55.936-113.6-113.6 45.312-45.248 113.536 113.6 49.92-49.856-67.84-67.84 45.248-45.312 67.84 67.84 62.144-62.144a132.608 132.608 0 0 1 106.112-212.16zM541.184 608c13.824 0 27.52 0.32 41.216 0.96v27.904l0.064 13.056v4.224l0.064 11.52v7.36a818.24 818.24 0 0 0-393.344 78.336v112.64h320v64h-352a32 32 0 0 1-32-32v-145.6a61.44 61.44 0 0 1 34.368-55.808A882.304 882.304 0 0 1 541.184 608z m366.72-93.888a68.608 68.608 0 1 0 0 137.216 68.608 68.608 0 0 0 0-137.216zM541.184 96a224 224 0 1 1 0 448 224 224 0 0 1 0-448z m0 64a160 160 0 1 0 0 320 160 160 0 0 0 0-320z" /></svg>