<?xml version="1.0" standalone="no"?><!DOCTYPE svg PUBLIC "-//W3C//DTD SVG 1.1//EN" "http://www.w3.org/Graphics/SVG/1.1/DTD/svg11.dtd"><svg class="icon" width="64px" height="60.24px" viewBox="0 0 1088 1024" version="1.1" xmlns="http://www.w3.org/2000/svg"><path fill="#3783d1" d="M921.216 127.36a70.4 70.4 0 0 1 70.4 70.4v628.48a70.4 70.4 0 0 1-70.4 70.4h-691.2a70.4 70.4 0 0 1-70.4-70.4V197.76a70.4 70.4 0 0 1 70.4-70.4h691.2z m6.4 416.64h-704v282.24a6.4 6.4 0 0 0 6.4 6.4h691.2a6.4 6.4 0 0 0 6.4-6.4V544z m-6.4-352.64h-691.2a6.4 6.4 0 0 0-6.4 6.4V480h704V197.76a6.4 6.4 0 0 0-6.4-6.4z"  /></svg>