<?xml version="1.0" standalone="no"?><!DOCTYPE svg PUBLIC "-//W3C//DTD SVG 1.1//EN" "http://www.w3.org/Graphics/SVG/1.1/DTD/svg11.dtd"><svg class="icon" width="64px" height="60.24px" viewBox="0 0 1088 1024" version="1.1" xmlns="http://www.w3.org/2000/svg"><path fill="#3783d1" d="M414.72 819.2a70.4 70.4 0 0 1-70.4-70.4V275.2a70.4 70.4 0 0 1 70.4-70.4h195.712a70.4 70.4 0 0 1 70.4 70.4v473.6a70.4 70.4 0 0 1-70.4 70.4H414.72z m0-64h195.712a6.4 6.4 0 0 0 6.4-6.4V275.2a6.4 6.4 0 0 0-6.4-6.4H414.72a6.4 6.4 0 0 0-6.4 6.4v473.6a6.4 6.4 0 0 0 6.4 6.4zM921.408 480H103.744v64h817.664z" /></svg>