<?xml version="1.0" standalone="no"?><!DOCTYPE svg PUBLIC "-//W3C//DTD SVG 1.1//EN" "http://www.w3.org/Graphics/SVG/1.1/DTD/svg11.dtd"><svg class="icon" width="64px" height="60.24px" viewBox="0 0 1088 1024" version="1.1" xmlns="http://www.w3.org/2000/svg"><path fill="#3783d1" d="M414.72 819.2a70.4 70.4 0 0 1-70.4-70.4V544.064L103.68 544v-64l240.64 0.064V275.2a70.4 70.4 0 0 1 70.4-70.4h195.712a70.4 70.4 0 0 1 70.4 70.4l0.064 204.864 240.512-0.064v64l-240.512 0.064V748.8a70.4 70.4 0 0 1-70.4 70.4h-195.84z m-6.4-339.136h208.64L616.768 275.2a6.4 6.4 0 0 0-6.4-6.4H414.72a6.4 6.4 0 0 0-6.4 6.4v204.864z m6.4 275.136h195.712a6.4 6.4 0 0 0 6.4-6.4l0.064-204.736H408.32V748.8a6.4 6.4 0 0 0 6.4 6.4z" /></svg>