<?xml version="1.0" standalone="no"?><!DOCTYPE svg PUBLIC "-//W3C//DTD SVG 1.1//EN" "http://www.w3.org/Graphics/SVG/1.1/DTD/svg11.dtd"><svg class="icon" width="64px" height="60.24px" viewBox="0 0 1088 1024" version="1.1" xmlns="http://www.w3.org/2000/svg"><path fill="#3783d1" d="M575.616 95.296c229.76 0 416 186.56 416 416.704s-186.24 416.704-416 416.704c-41.216 0-61.504-15.872-73.92-50.432-15.808-43.904-19.2-50.688-43.392-75.648-11.2-11.52-30.528-20.096-71.872-32.704l-24.64-7.488a889.792 889.792 0 0 1-26.112-8.384C219.52 714.432 159.68 648.32 159.68 512c0-230.144 186.24-416.704 416-416.704z m0 64A352.384 352.384 0 0 0 223.616 512c0 105.536 40.32 149.952 132.736 181.44 7.232 2.496 14.848 4.928 24.32 7.808l24.512 7.488c51.712 15.808 77.568 27.264 99.008 49.28 32.576 33.536 38.912 46.464 57.728 98.56 3.648 10.304 0.896 8.128 13.696 8.128 194.432 0 352-157.888 352-352.704a352.384 352.384 0 0 0-352-352.704z m81.152 439.36c43.776 0 79.296 35.392 79.296 79.04 0 43.712-35.52 79.104-79.296 79.104a79.168 79.168 0 0 1-79.232-79.104c0-43.648 35.456-79.04 79.232-79.04z m132.288-156.608a52.8 52.8 0 1 1 0.128 105.6 52.8 52.8 0 0 1-0.128-105.6z m-66.24-143.936a52.8 52.8 0 1 1 0.128 105.6 52.8 52.8 0 0 1-0.128-105.6z m-296.832-2.944a52.8 52.8 0 1 1 0.128 105.6 52.8 52.8 0 0 1-0.128-105.6z m151.552-62.976a52.8 52.8 0 1 1 0.064 105.6 52.8 52.8 0 0 1-0.064-105.6z"  /></svg>