<?xml version="1.0" standalone="no"?><!DOCTYPE svg PUBLIC "-//W3C//DTD SVG 1.1//EN" "http://www.w3.org/Graphics/SVG/1.1/DTD/svg11.dtd"><svg class="icon" width="64px" height="64.00px" viewBox="0 0 1024 1024" version="1.1" xmlns="http://www.w3.org/2000/svg"><path fill="#3783d1" d="M886.613333 383.431111l-120.661333 120.661333 134.030222 134.144-201.102222 201.159112-114.005333-114.005334 40.220444-40.220444 6.712889 6.599111 33.564444-33.393778 40.220445 40.220445-33.564445 33.450666 26.737778 26.908445 120.718222-120.718223-93.752888-93.866666-243.029334 242.972444H281.543111v-201.102222l243.029333-243.029333L430.648889 249.400889 309.987556 370.119111l26.794666 26.737778 33.564445-33.507556 40.220444 40.220445-33.507555 33.450666 6.712888 6.826667-40.220444 40.163556-114.005333-113.948445 201.159111-201.159111 134.087111 134.030222 120.661333-120.604444 201.159111 201.159111zM712.248889 477.297778L591.644444 356.693333l-253.155555 253.155556v120.661333h120.718222l253.041778-253.155555z m93.866667-93.866667l-120.604445-120.604444-53.703111 53.589333 120.718222 120.661333 53.589334-53.589333z"  /></svg>