<?xml version="1.0" standalone="no"?><!DOCTYPE svg PUBLIC "-//W3C//DTD SVG 1.1//EN" "http://www.w3.org/Graphics/SVG/1.1/DTD/svg11.dtd"><svg class="icon" width="64px" height="64.00px" viewBox="0 0 1024 1024" version="1.1" xmlns="http://www.w3.org/2000/svg"><path fill="#3784d1" d="M810.666667 128a85.333333 85.333333 0 0 1 85.333333 85.333333v384a85.333333 85.333333 0 0 1-85.333333 85.333334h-128v128a85.333333 85.333333 0 0 1-85.333334 85.333333H213.333333a85.333333 85.333333 0 0 1-85.333333-85.333333v-384a85.333333 85.333333 0 0 1 85.333333-85.333334h127.957334L341.333333 213.333333a85.333333 85.333333 0 0 1 85.333334-85.333333h384z m0 85.333333h-384v384h384V213.333333z"  /></svg>