<?xml version="1.0" standalone="no"?><!DOCTYPE svg PUBLIC "-//W3C//DTD SVG 1.1//EN" "http://www.w3.org/Graphics/SVG/1.1/DTD/svg11.dtd"><svg class="icon" width="64px" height="60.24px" viewBox="0 0 1088 1024" version="1.1" xmlns="http://www.w3.org/2000/svg"><path fill="#3783d1" d="M769.728 96a64 64 0 0 1 64 64v113.28L545.728 512l288 238.72v113.28a64 64 0 0 1-64 64h-512a64 64 0 0 1-64-64v-113.28L481.728 512l-288-238.72V160a64 64 0 0 1 64-64h512z m-256 472.576l-256 212.288V864h512v-83.2l-256-212.224z m256-408.576h-512v83.2l256 212.224 256-212.288V160z"  fill-opacity=".9" /></svg>