<?xml version="1.0" standalone="no"?><!DOCTYPE svg PUBLIC "-//W3C//DTD SVG 1.1//EN" "http://www.w3.org/Graphics/SVG/1.1/DTD/svg11.dtd"><svg class="icon" width="64px" height="60.24px" viewBox="0 0 1088 1024" version="1.1" xmlns="http://www.w3.org/2000/svg"><path fill="#3783d1" d="M610.432 452.544h279.744a38.4 38.4 0 0 0 38.4-38.4V134.4a38.4 38.4 0 0 0-38.4-38.4H610.432a38.4 38.4 0 0 0-38.4 38.4v21.056H253.824a38.4 38.4 0 0 0-38.4 38.4v139.84H135.04a38.4 38.4 0 0 0-38.4 38.4v279.808a38.4 38.4 0 0 0 38.4 38.4h80.448v139.84a38.4 38.4 0 0 0 38.4 38.4h318.208v21.056a38.4 38.4 0 0 0 38.4 38.4h279.744a38.4 38.4 0 0 0 38.4-38.4V609.856a38.4 38.4 0 0 0-38.4-38.4H610.432a38.4 38.4 0 0 0-38.4 38.4v199.296H274.88v-118.848H414.72a38.4 38.4 0 0 0 38.4-38.4V372.096a38.4 38.4 0 0 0-38.4-38.4H274.88V214.848h297.152v199.296a38.4 38.4 0 0 0 38.4 38.4z m20.992 416v-118.848h237.696v118.848H631.424z m237.696-237.696v59.456H631.424v-59.456h237.696z m-713.088 0V512h237.696v118.848H156.032z m237.696-178.304H156.032v-59.392h237.696v59.392z m237.696-59.392V274.304h237.696v118.848H631.424z m237.696-237.696v59.392H631.424V155.52h237.696z"  /></svg>