<?xml version="1.0" standalone="no"?><!DOCTYPE svg PUBLIC "-//W3C//DTD SVG 1.1//EN" "http://www.w3.org/Graphics/SVG/1.1/DTD/svg11.dtd"><svg class="icon" width="64px" height="64.00px" viewBox="0 0 1024 1024" version="1.1" xmlns="http://www.w3.org/2000/svg"><path fill="#3783d1" d="M572.235294 518.746353L498.386824 592.715294 379.964235 474.352941l69.029647-69.029647-34.514823-34.514823-69.029647 69.029647-69.089883-69.029647-83.787294 83.787294a226.846118 226.846118 0 0 0-19.757176 300.815059L59.392 873.773176l34.514824 34.514824 113.423058-113.423059c39.454118 34.575059 88.786824 49.392941 138.11953 49.392941 59.151059 0 118.362353-24.696471 162.695529-69.089882l83.84753-83.847529-64.090353-64.090353 73.968941-73.968942-29.57553-34.514823z m-98.605176 216.967529c-34.514824 34.514824-78.908235 54.211765-123.301647 54.211765-44.333176 0-88.726588-14.757647-118.302118-49.272471l-4.939294-4.939294c-64.150588-64.090353-64.150588-172.574118 4.939294-241.664l44.333176-44.393411L518.023529 691.320471l-44.393411 44.393411z m433.995294-636.144941l-34.514824-34.575059-108.483764 103.604706c-39.454118-34.514824-88.786824-49.332706-138.11953-49.332706-59.151059 0-118.362353 24.696471-162.695529 69.029647l-83.84753 78.908236 320.512 320.572235 78.908236-78.908235a226.846118 226.846118 0 0 0 19.757176-300.815059l108.423529-108.483765z m-167.695059 369.844706l-39.454118 39.454118-241.603764-241.664 39.454117-39.454118c34.514824-34.514824 78.908235-54.211765 123.241412-54.211765 44.393412 0 88.786824 14.757647 118.362353 49.272471l4.939294 4.939294c69.029647 64.150588 64.150588 172.634353-4.939294 241.664z"  /></svg>