<?xml version="1.0" standalone="no"?><!DOCTYPE svg PUBLIC "-//W3C//DTD SVG 1.1//EN" "http://www.w3.org/Graphics/SVG/1.1/DTD/svg11.dtd"><svg class="icon" width="64px" height="60.24px" viewBox="0 0 1088 1024" version="1.1" xmlns="http://www.w3.org/2000/svg"><path fill="#3783d1" d="M890.176 690.304a38.4 38.4 0 0 1 38.4 38.4V889.6a38.4 38.4 0 0 1-38.4 38.4h-160.896a38.4 38.4 0 0 1-38.4-38.4v-160.896a38.4 38.4 0 0 1 38.4-38.4h160.896z m-21.056 59.392h-118.848v118.848h118.848v-118.848zM334.272 482.304v59.392h-59.392a118.848 118.848 0 1 0 0 237.76h356.544v59.392H274.88a178.304 178.304 0 0 1 0-356.544h59.392z m258.752-89.152a38.4 38.4 0 0 1 38.4 38.4v160.896a38.4 38.4 0 0 1-38.4 38.4H432.128a38.4 38.4 0 0 1-38.4-38.4V431.552a38.4 38.4 0 0 1 38.4-38.4h160.896z m-20.992 59.392H453.12V571.52h118.912V452.48z m178.24-267.392a178.304 178.304 0 0 1 0 356.544h-59.392v-59.392h59.392a118.848 118.848 0 1 0 0-237.76H393.728v-59.392h356.544zM295.872 96a38.4 38.4 0 0 1 38.4 38.4v160.896a38.4 38.4 0 0 1-38.4 38.4H135.04a38.4 38.4 0 0 1-38.4-38.4V134.4a38.4 38.4 0 0 1 38.4-38.4h160.896z m-20.992 59.456H156.032v118.848h118.848V155.456z"  /></svg>