<?xml version="1.0" standalone="no"?><!DOCTYPE svg PUBLIC "-//W3C//DTD SVG 1.1//EN" "http://www.w3.org/Graphics/SVG/1.1/DTD/svg11.dtd"><svg class="icon" width="64px" height="60.24px" viewBox="0 0 1088 1024" version="1.1" xmlns="http://www.w3.org/2000/svg"><path fill="#3783d1" d="M886.784 130.56c37.12 0 67.264 30.08 67.264 67.2v628.48c0 37.12-30.08 67.2-67.2 67.2h-691.2c-37.184 0-67.264-30.08-67.264-67.2V197.76c0-37.12 30.08-67.2 67.2-67.2h691.2z m-446.528 57.6H195.584a9.6 9.6 0 0 0-9.536 9.6v628.48c0 5.248 4.288 9.6 9.6 9.6h244.608V188.16z m446.528 0H497.984v647.68h388.8a9.6 9.6 0 0 0 9.6-9.6V197.76a9.6 9.6 0 0 0-9.6-9.6z m-57.6 487.36v57.664h-256v-57.664h256z m0-192.384v57.728h-256v-57.728h256z m-574.72-228.928l115.2 91.072-115.2 91.072V254.208z m574.72 36.608v57.664h-256v-57.664h256z"  /></svg>