<?xml version="1.0" standalone="no"?><!DOCTYPE svg PUBLIC "-//W3C//DTD SVG 1.1//EN" "http://www.w3.org/Graphics/SVG/1.1/DTD/svg11.dtd"><svg class="icon" width="64px" height="64.00px" viewBox="0 0 1024 1024" version="1.1" xmlns="http://www.w3.org/2000/svg"><path d="M498.145882 152.636235a30.117647 30.117647 0 0 1 45.598118 25.840941v616.387765a30.117647 30.117647 0 0 1-45.598118 25.901177l-255.578353-153.419294h-114.447058a36.141176 36.141176 0 0 1-36.141177-36.141177l0.301177-289.129412a36.141176 36.141176 0 0 1 36.141176-36.141176h114.145882z m-14.637176 79.028706l-180.705882 108.42353v293.165176l180.705882 108.423529V231.664941z m-240.941177 134.505412H152.395294l-0.180706 240.941176h90.292706v-240.941176z" fill="#000000" fill-opacity=".9" /><path d="M845.342118 335.450353l42.586353 42.586353-108.604236 108.66447 108.604236 108.604236-42.586353 42.586353-108.604236-108.604236-108.66447 108.604236-42.586353-42.586353 108.66447-108.604236L585.487059 378.036706l42.586353-42.586353 108.66447 108.664471 108.604236-108.664471z" fill="#000000" /></svg>