<?xml version="1.0" standalone="no"?><!DOCTYPE svg PUBLIC "-//W3C//DTD SVG 1.1//EN" "http://www.w3.org/Graphics/SVG/1.1/DTD/svg11.dtd"><svg class="icon" width="64px" height="64.00px" viewBox="0 0 1024 1024" version="1.1" xmlns="http://www.w3.org/2000/svg"><path fill="#3783d1" d="M453.391059 65.054118h60.235294v843.294117h-60.235294zM888.229647 753.904941a30.117647 30.117647 0 0 1-20.961882 32.587294c-4.336941 1.325176-10.541176 1.325176-22.889412 1.325177h-201.246118c-8.432941 0-12.649412 0-16.082823-0.783059a30.117647 30.117647 0 0 1-22.287059-22.287059c-0.783059-3.433412-0.783059-7.649882-0.783059-16.082823V305.995294c0-31.924706 0-47.887059 2.409412-53.609412a30.117647 30.117647 0 0 1 47.947294-10.36047c4.577882 4.156235 11.203765 18.672941 24.455529 47.766588l201.185883 442.729412c5.12 11.264 7.710118 16.865882 8.252235 21.383529z m-224.015059-26.322823h147.395765l-147.395765-324.246589v324.246589zM99.749647 786.492235c4.336941 1.325176 10.541176 1.325176 22.889412 1.325177h201.246117c8.432941 0 12.649412 0 16.082824-0.783059a30.117647 30.117647 0 0 0 22.287059-22.287059c0.783059-3.433412 0.783059-7.649882 0.783059-16.082823V305.995294c0-31.924706 0-47.887059-2.409412-53.609412a30.117647 30.117647 0 0 0-47.947294-10.36047c-4.577882 4.156235-11.203765 18.672941-24.45553 47.766588l-201.185882 442.729412c-5.12 11.264-7.710118 16.865882-8.252235 21.383529a30.117647 30.117647 0 0 0 20.961882 32.587294z m203.053177-383.09647v324.186353H155.407059l147.395765-324.246589z"  fill-opacity=".9" /></svg>