<?xml version="1.0" standalone="no"?><!DOCTYPE svg PUBLIC "-//W3C//DTD SVG 1.1//EN" "http://www.w3.org/Graphics/SVG/1.1/DTD/svg11.dtd"><svg class="icon" width="64px" height="60.24px" viewBox="0 0 1088 1024" version="1.1" xmlns="http://www.w3.org/2000/svg"><path fill="#3783d1" d="M733.184 287.616a224 224 0 0 1 224 224v0.768a224 224 0 0 1-224 224h-384a224 224 0 0 1-224-224v-0.768a224 224 0 0 1 224-224h384z m0 64h-384a160 160 0 0 0-160 160v0.768a160 160 0 0 0 160 160h384a160 160 0 0 0 160-160v-0.768a160 160 0 0 0-160-160z m0 43.776A116.48 116.48 0 0 1 849.6 512a116.48 116.48 0 0 1-116.416 116.608A116.48 116.48 0 0 1 616.832 512a116.48 116.48 0 0 1 116.352-116.608z"  /></svg>