<?xml version="1.0" standalone="no"?><!DOCTYPE svg PUBLIC "-//W3C//DTD SVG 1.1//EN" "http://www.w3.org/Graphics/SVG/1.1/DTD/svg11.dtd"><svg class="icon" width="64px" height="60.24px" viewBox="0 0 1088 1024" version="1.1" xmlns="http://www.w3.org/2000/svg"><path fill="#3783d1" d="M385.728 640h256v64h-256v-64z m-96-320a224 224 0 0 1 448 0h-64a160 160 0 1 0-320 0v64h480a32 32 0 0 1 32 32v448a32 32 0 0 1-32 32h-640a32 32 0 0 1-32-32v-448a32 32 0 0 1 32-32h96V320z m512 512V448h-576v384h576z"  fill-opacity=".9" /></svg>