<?xml version="1.0" standalone="no"?><!DOCTYPE svg PUBLIC "-//W3C//DTD SVG 1.1//EN" "http://www.w3.org/Graphics/SVG/1.1/DTD/svg11.dtd"><svg class="icon" width="64px" height="60.24px" viewBox="0 0 1088 1024" version="1.1" xmlns="http://www.w3.org/2000/svg"><path fill="#3783d1" d="M513.728 83.008a352 352 0 0 1 350.976 324.864 32 32 0 0 1 1.024 8.128v256a32 32 0 0 1-1.408 9.344 288 288 0 0 1-286.592 259.648h-64v-64h64A224.064 224.064 0 0 0 795.904 704h-122.176a32 32 0 0 1-32-32v-256a32 32 0 0 1 32-32h123.52a288.064 288.064 0 0 0-567.04 0h123.52a32 32 0 0 1 32 32v256a32 32 0 0 1-32 32h-160a32 32 0 0 1-32-32v-256a32 32 0 0 1 1.024-8.064 352 352 0 0 1 350.976-324.928zM801.728 448h-96v192h96V448z m-480 0h-96v192h96V448z"  fill-opacity=".9" /></svg>