<?xml version="1.0" standalone="no"?><!DOCTYPE svg PUBLIC "-//W3C//DTD SVG 1.1//EN" "http://www.w3.org/Graphics/SVG/1.1/DTD/svg11.dtd"><svg class="icon" width="64px" height="60.24px" viewBox="0 0 1088 1024" version="1.1" xmlns="http://www.w3.org/2000/svg"><path fill="#3783d1" d="M553.984 118.528l350.464 254.656a70.4 70.4 0 0 1 25.6 78.72l-133.888 412.032a70.4 70.4 0 0 1-66.944 48.64h-433.28a70.4 70.4 0 0 1-66.944-48.64L95.104 451.84a70.4 70.4 0 0 1 25.6-78.72l350.464-254.592a70.4 70.4 0 0 1 82.816 0z m73.344 653.824H397.824c-3.712 0-7.36-0.32-10.88-0.896l-56.128 77.056h363.392l-55.936-77.056a70.528 70.528 0 0 1-10.944 0.896zM166.72 465.28l112.32 345.6 56.064-77.056a70.528 70.528 0 0 1-4.224-10.176l-70.912-218.24a70.528 70.528 0 0 1-2.56-10.624L166.72 465.28z m691.584 0l-90.56 29.504a70.528 70.528 0 0 1-2.56 10.624l-70.912 218.24c-1.152 3.584-2.56 6.976-4.224 10.24l55.936 77.056 112.32-345.664zM512.64 598.4l-79.872 109.888h159.616L512.64 598.4zM331.584 518.912l49.344 151.872L460.8 560.832l-129.216-41.984z m361.856 0l-129.152 41.984 79.808 109.824 49.344-151.808zM544.512 364.096v135.872l129.28-41.984-129.28-93.888z m-64 0L351.36 457.984l129.152 41.92V364.096z m64-173.312l0.128 95.36c3.2 1.6 6.336 3.52 9.344 5.76l185.6 134.848c3.008 2.176 5.824 4.544 8.384 7.104l90.56-29.44L544.512 190.72z m-64 0L186.496 404.416l90.752 29.44c2.56-2.56 5.312-4.992 8.32-7.104l185.6-134.912c3.008-2.176 6.144-4.096 9.344-5.76V190.72z"  /></svg>