<?xml version="1.0" standalone="no"?><!DOCTYPE svg PUBLIC "-//W3C//DTD SVG 1.1//EN" "http://www.w3.org/Graphics/SVG/1.1/DTD/svg11.dtd"><svg class="icon" width="64px" height="60.24px" viewBox="0 0 1088 1024" version="1.1" xmlns="http://www.w3.org/2000/svg"><path fill="#3783d1" d="M535.808 625.152l45.248 45.248-135.808 135.744a160 160 0 0 1-226.24-226.24l135.744-135.808 45.248 45.248L264.32 625.152a96 96 0 0 0 135.744 135.744l135.808-135.744z m90.496-90.496l135.744-135.808a96 96 0 1 0-135.744-135.744L490.56 398.848l-45.312-45.248L581.12 217.856a160 160 0 1 1 226.24 226.24l-135.744 135.808-45.248-45.248zM400 579.84l45.312 45.248 180.992-181.056-45.248-45.248L400 579.904z"  fill-opacity=".9" /></svg>