<?xml version="1.0" standalone="no"?><!DOCTYPE svg PUBLIC "-//W3C//DTD SVG 1.1//EN" "http://www.w3.org/Graphics/SVG/1.1/DTD/svg11.dtd"><svg class="icon" width="64px" height="60.24px" viewBox="0 0 1088 1024" version="1.1" xmlns="http://www.w3.org/2000/svg"><path fill="#3783d1" d="M991.616 835.328c0 37.568-30.4 68.032-67.968 68.032H227.648a68.032 68.032 0 0 1-68.032-68.032V204.608c0-37.504 30.464-67.968 68.032-67.968h696c37.568 0 67.968 30.464 67.968 67.968v630.72z m-447.936 3.968v-638.72H227.648a4.032 4.032 0 0 0-4.032 4.032v630.72c0 2.24 1.792 4.032 4.032 4.032l316.032-0.064z m384-3.968V204.608a4.032 4.032 0 0 0-4.032-3.968H607.68v638.656h315.968a4.032 4.032 0 0 0 3.968-3.968z"  /></svg>