<?xml version="1.0" standalone="no"?><!DOCTYPE svg PUBLIC "-//W3C//DTD SVG 1.1//EN" "http://www.w3.org/Graphics/SVG/1.1/DTD/svg11.dtd"><svg class="icon" width="64px" height="60.24px" viewBox="0 0 1088 1024" version="1.1" xmlns="http://www.w3.org/2000/svg"><path fill="#3783d1" d="M483.712 49.28a59.968 59.968 0 0 1 60.032 0l353.664 204.224a64 64 0 0 1 32 55.424v408.448a60.032 60.032 0 0 1-30.016 51.968l-353.664 204.16a64 64 0 0 1-64 0l-353.664-204.16a60.032 60.032 0 0 1-30.08-51.968V308.928a64 64 0 0 1 32-55.424z m381.696 296.64L545.728 530.496v369.024l319.68-184.512V345.92z m-703.424 0v369.088l319.744 184.512V530.56L161.984 345.856z m351.744-240.064L193.984 290.432l319.68 184.576 319.744-184.576-319.68-184.576z"  fill-opacity=".9" /></svg>