<?xml version="1.0" standalone="no"?><!DOCTYPE svg PUBLIC "-//W3C//DTD SVG 1.1//EN" "http://www.w3.org/Graphics/SVG/1.1/DTD/svg11.dtd"><svg class="icon" width="64px" height="60.24px" viewBox="0 0 1088 1024" version="1.1" xmlns="http://www.w3.org/2000/svg"><path fill="#3783d1" d="M846.528 512.128c0 183.104-151.04 333.312-339.392 333.312-157.568 0-288.96-104.96-327.808-246.4l-66.112 10.752c44.224 173.696 203.84 302.336 393.92 302.336 224.256 0 406.08-179.136 406.08-400 0-220.928-181.76-400-406.08-400a407.552 407.552 0 0 0-327.424 163.328v-106.24H113.216v201.408a32 32 0 0 0 32 32h200.128V335.808H219.072a340.288 340.288 0 0 1 288-157.056c188.48 0 339.456 150.208 339.456 333.376z m-397.44 24.768l169.408 169.344 45.248-45.248-150.592-150.592V352h-64v184.896z"  fill-opacity=".9" /></svg>