<?xml version="1.0" standalone="no"?><!DOCTYPE svg PUBLIC "-//W3C//DTD SVG 1.1//EN" "http://www.w3.org/Graphics/SVG/1.1/DTD/svg11.dtd"><svg class="icon" width="64px" height="60.24px" viewBox="0 0 1088 1024" version="1.1" xmlns="http://www.w3.org/2000/svg"><path fill="#3783d1" d="M125.248 876.8V518.656l16.576-9.088L304.448 420.032V261.824L603.712 112.192 618.048 105.024l14.272 7.168L931.648 261.824v70.976h-64v-31.424l-249.6-124.8-249.664 124.8v83.52l29.44-16.128 15.36-8.512 15.488 8.512 256 140.8 16.576 9.088-0.064 294.08h166.4l0.064-275.2h64v339.2H125.248z m319.936-426.048v189.248H381.248V450.752L189.184 556.48v256.32h448V556.48L445.248 450.752z"  /><path fill="#3783d1" d="M901.76 437.312m-64 0a64 64 0 1 0 128 0 64 64 0 1 0-128 0Z"  /></svg>