<?xml version="1.0" standalone="no"?><!DOCTYPE svg PUBLIC "-//W3C//DTD SVG 1.1//EN" "http://www.w3.org/Graphics/SVG/1.1/DTD/svg11.dtd"><svg class="icon" width="64px" height="60.24px" viewBox="0 0 1088 1024" version="1.1" xmlns="http://www.w3.org/2000/svg"><path fill="#3783d1" d="M829.44 219.84A70.4 70.4 0 0 1 899.84 290.24v443.52a70.4 70.4 0 0 1-70.4 70.4H321.92a70.4 70.4 0 0 1-70.4-70.4V290.24A70.4 70.4 0 0 1 321.92 219.84h507.52z m0 64H321.92a6.4 6.4 0 0 0-6.4 6.4v443.52a6.4 6.4 0 0 0 6.4 6.4h507.52a6.4 6.4 0 0 0 6.4-6.4V290.24a6.4 6.4 0 0 0-6.4-6.4z"  /><path fill="#3783d1" d="M704 469.376l21.76 18.112 155.456 130.112-41.088 49.088-133.76-112-258.56 240.96-43.648-46.848L683.392 488.64z"  /><path fill="#3783d1" d="M361.984 398.208a64 64 0 1 0 128 0 64 64 0 1 0-128 0Z"  /><path fill="#3783d1" d="M205.568 317.44v64h-39.552a6.4 6.4 0 0 0-6.4 6.4v280.96a6.4 6.4 0 0 0 6.4 6.4h39.552v64h-39.552a70.4 70.4 0 0 1-70.4-70.4V387.84a70.4 70.4 0 0 1 70.4-70.4h39.552zM945.728 317.44v64h39.488a6.4 6.4 0 0 1 6.4 6.4v280.96a6.4 6.4 0 0 1-6.4 6.4h-39.488v64h39.488a70.4 70.4 0 0 0 70.4-70.4V387.84a70.4 70.4 0 0 0-70.4-70.4h-39.488z"  /></svg>