<?xml version="1.0" standalone="no"?><!DOCTYPE svg PUBLIC "-//W3C//DTD SVG 1.1//EN" "http://www.w3.org/Graphics/SVG/1.1/DTD/svg11.dtd"><svg class="icon" width="64px" height="60.24px" viewBox="0 0 1088 1024" version="1.1" xmlns="http://www.w3.org/2000/svg"><path fill="#3783d1" d="M326.656 437.76L219.328 330.176a265.216 265.216 0 0 0-0.768 376.32l106.048-104.96a150.4 150.4 0 0 1 2.048-163.648zM154.048 816.96A375.68 375.68 0 0 0 422.016 928v-259.072a152.192 152.192 0 0 1-76.224-42.048l-191.744 190.08zM457.28 671.616v178.752a258.432 258.432 0 0 0 183.552-75.84L521.6 655.168a147.84 147.84 0 0 1-64.256 16.448zM553.664 632.32l142.528 143.232a341.696 341.696 0 0 0 102.528-244.032H602.112a150.016 150.016 0 0 1-48.448 100.864z m46.08-138.816h284.8a398.336 398.336 0 0 0-115.904-281.344A396.48 396.48 0 0 0 487.04 96v278.976A150.528 150.528 0 0 1 599.744 493.44zM349.184 411.52c26.688-25.92 62.08-40.96 99.2-42.048V169.472c-90.496 0-177.28 35.904-241.344 99.84L349.184 411.52z"  /></svg>