<?xml version="1.0" standalone="no"?><!DOCTYPE svg PUBLIC "-//W3C//DTD SVG 1.1//EN" "http://www.w3.org/Graphics/SVG/1.1/DTD/svg11.dtd"><svg class="icon" width="64px" height="60.24px" viewBox="0 0 1088 1024" version="1.1" xmlns="http://www.w3.org/2000/svg"><path fill="#3783d1" d="M556.608 205.952l-0.064 316.16 316.288 0.064v32a348.224 348.224 0 1 1-348.16-348.224h31.936z m-64 65.792l-7.68 0.896A284.288 284.288 0 1 0 806.144 593.792l0.832-7.68H492.608V271.808z"  /><path fill="#3783d1" d="M634.56 96a348.16 348.16 0 0 1 348.16 348.224v32H733.184v-64h183.68l-0.128-2.368a281.984 281.984 0 0 0-22.464-81.408l-7.424-15.232A284.288 284.288 0 0 0 677.696 163.264L666.496 161.792V345.6H602.624V96h32z"  /><path fill="#3783d1" d="M643.584 435.2m-64 0a64 64 0 1 0 128 0 64 64 0 1 0-128 0Z"  /></svg>