<?xml version="1.0" standalone="no"?><!DOCTYPE svg PUBLIC "-//W3C//DTD SVG 1.1//EN" "http://www.w3.org/Graphics/SVG/1.1/DTD/svg11.dtd"><svg class="icon" width="64px" height="60.24px" viewBox="0 0 1088 1024" version="1.1" xmlns="http://www.w3.org/2000/svg"><path fill="#3783d1" d="M357.184 145.088L304.64 224H130.368a32.64 32.64 0 0 0-32.64 32.64v542.72c0 18.048 14.592 32.64 32.64 32.64h766.72a32.64 32.64 0 0 0 32.64-32.64V256.64a32.64 32.64 0 0 0-32.64-32.64h-174.208l-52.608-78.912a38.4 38.4 0 0 0-32-17.088H389.184a38.4 38.4 0 0 0-32 17.088zM624.64 192l64 96h177.152V768h-704V288h177.152l64-96h221.696z"  fill-opacity=".9" /><path fill="#3783d1" d="M513.728 320a192 192 0 1 1 0 384 192 192 0 0 1 0-384z m0 64a128 128 0 1 0 0 256 128 128 0 0 0 0-256z"  fill-opacity=".9" /></svg>