<?xml version="1.0" standalone="no"?><!DOCTYPE svg PUBLIC "-//W3C//DTD SVG 1.1//EN" "http://www.w3.org/Graphics/SVG/1.1/DTD/svg11.dtd"><svg class="icon" width="64px" height="60.24px" viewBox="0 0 1088 1024" version="1.1" xmlns="http://www.w3.org/2000/svg"><path fill="#3783d1" d="M592.64 107.328a38.4 38.4 0 0 1 17.472 17.472l99.584 202.304 222.912 32.512a38.4 38.4 0 0 1 32.896 37.248l-0.384 6.272a38.4 38.4 0 0 1-11.2 21.952l-161.408 157.504 38.208 222.4a38.4 38.4 0 0 1-25.344 42.88l-6.08 1.472a38.4 38.4 0 0 1-24.32-3.84L575.552 740.48 376.32 845.44a38.4 38.4 0 0 1-48.512-10.752l-3.328-5.312a38.4 38.4 0 0 1-3.84-24.32l38.016-222.464-161.28-157.504a38.4 38.4 0 0 1-5.056-48.96l4.416-5.376a38.4 38.4 0 0 1 21.952-11.136l222.784-32.512 99.712-202.24a38.4 38.4 0 0 1 51.456-17.536zM575.616 199.68L491.52 370.56l-7.488 15.04-16.64 2.432-188.288 27.392 136.32 133.12 11.968 11.712-2.816 16.64-32.192 187.712 168.32-88.576 14.912-7.872 14.912 7.872 168.32 88.576-32.128-187.776-2.88-16.576 12.032-11.712 136.192-133.12-188.16-27.392-16.64-2.432-7.488-15.104L575.616 199.68z m96 328.384v64h-192v-64h192z"  /></svg>