<?xml version="1.0" standalone="no"?><!DOCTYPE svg PUBLIC "-//W3C//DTD SVG 1.1//EN" "http://www.w3.org/Graphics/SVG/1.1/DTD/svg11.dtd"><svg class="icon" width="64px" height="64.00px" viewBox="0 0 1024 1024" version="1.1" xmlns="http://www.w3.org/2000/svg"><path fill="#3783d1" d="M550.972235 192.030118l339.606589 271.058823a30.117647 30.117647 0 0 1 0 47.104l-339.606589 271.058824a30.117647 30.117647 0 0 1-48.850823-23.491765V500.796235a30.057412 30.057412 0 0 1-7.348706 9.035294l-323.282824 269.372236a30.117647 30.117647 0 0 1-49.392941-23.130353V217.268706a30.117647 30.117647 0 0 1 49.392941-23.130353l323.282824 269.372235a30.057412 30.057412 0 0 1 7.348706 9.035294V215.582118a30.117647 30.117647 0 0 1 48.850823-23.491765z m11.384471 86.13647v417.008941l261.180235-208.474353-261.180235-208.534588z m-380.024471 3.433412v410.202353L428.453647 486.701176 182.332235 281.6z"  fill-opacity=".9" /></svg>