<?xml version="1.0" standalone="no"?><!DOCTYPE svg PUBLIC "-//W3C//DTD SVG 1.1//EN" "http://www.w3.org/Graphics/SVG/1.1/DTD/svg11.dtd"><svg class="icon" width="64px" height="60.24px" viewBox="0 0 1088 1024" version="1.1" xmlns="http://www.w3.org/2000/svg"><path fill="#3783d1" d="M162.432 96v772.544h772.544v59.456h-793.6a38.4 38.4 0 0 1-38.4-38.4V96h59.456z m598.848 503.744a102.4 102.4 0 1 1 0 204.8 102.4 102.4 0 0 1 0-204.8zM337.024 468.096a102.4 102.4 0 1 1 0 204.8 102.4 102.4 0 0 1 0-204.8z m322.432-284.672a153.6 153.6 0 1 1 0 307.2 153.6 153.6 0 0 1 0-307.2z"  /></svg>