<?xml version="1.0" standalone="no"?><!DOCTYPE svg PUBLIC "-//W3C//DTD SVG 1.1//EN" "http://www.w3.org/Graphics/SVG/1.1/DTD/svg11.dtd"><svg class="icon" width="64px" height="60.24px" viewBox="0 0 1088 1024" version="1.1" xmlns="http://www.w3.org/2000/svg"><path fill="#3783d1" d="M957.184 240v352h-832v-352h832z m-64 64h-704v223.936h704V304z"  /><path fill="#3783d1" d="M237.184 560a304 304 0 0 0 608 0h64a368 368 0 0 1-736 0h64zM785.664 283.264l51.456-38.08A367.424 367.424 0 0 0 541.184 96a367.424 367.424 0 0 0-295.872 149.184l51.392 38.08A303.488 303.488 0 0 1 541.184 160c97.664 0 187.52 46.272 244.48 123.264z"  /><path fill="#3783d1" d="M253.184 368h171.264v64H253.184z"  /><path fill="#3783d1" d="M541.184 528a128 128 0 1 1 0 256 128 128 0 0 1 0-256z m0 64a64 64 0 1 0 0 128 64 64 0 0 0 0-128z"  /></svg>