<?xml version="1.0" standalone="no"?><!DOCTYPE svg PUBLIC "-//W3C//DTD SVG 1.1//EN" "http://www.w3.org/Graphics/SVG/1.1/DTD/svg11.dtd"><svg class="icon" width="64px" height="60.24px" viewBox="0 0 1088 1024" version="1.1" xmlns="http://www.w3.org/2000/svg"><path fill="#3783d1" d="M128.576 96v563.776c70.528-219.328 208.768-257.28 404.416-95.232 81.088 67.072 126.656 82.88 147.712 68.352 19.072-13.12 31.36-48.32 47.872-132.224l5.12-26.048 5.504-26.816c29.44-139.648 70.592-213.568 164.8-235.52l14.464 62.4c-61.376 14.272-92.032 69.248-116.672 186.304l-5.312 26.048-5.12 25.984c-20.352 103.424-35.072 145.6-74.368 172.608-52.864 36.352-123.776 11.84-224.832-71.808-201.408-166.72-308.736-85.568-343.36 282.112h779.776v64h-793.6a70.4 70.4 0 0 1-70.4-70.4V96h64z"  /></svg>