<?xml version="1.0" standalone="no"?><!DOCTYPE svg PUBLIC "-//W3C//DTD SVG 1.1//EN" "http://www.w3.org/Graphics/SVG/1.1/DTD/svg11.dtd"><svg class="icon" width="64px" height="60.24px" viewBox="0 0 1088 1024" version="1.1" xmlns="http://www.w3.org/2000/svg"><path fill="#3783d1" d="M513.152 64a448 448 0 1 1 0 896 448 448 0 0 1 0-896z m0 64a384 384 0 1 0 0 768 384 384 0 0 0 0-768z m103.04 140.032l49.92 39.936L579.712 416h93.44v64h-128v64h128v64h-128V768h-64V608h-128v-64h128v-64h-128v-64h93.44l-86.4-108.032 49.92-39.936L513.152 396.8l103.04-128.768z"  fill-opacity=".9" /></svg>