<?xml version="1.0" standalone="no"?><!DOCTYPE svg PUBLIC "-//W3C//DTD SVG 1.1//EN" "http://www.w3.org/Graphics/SVG/1.1/DTD/svg11.dtd"><svg class="icon" width="64px" height="64.00px" viewBox="0 0 1024 1024" version="1.1" xmlns="http://www.w3.org/2000/svg"><path fill="#3783d1" d="M539.467294 177.392941v170.646588a130.529882 130.529882 0 1 1-260.999529 0V177.392941h260.999529z m-60.235294 60.235294H338.703059v110.411294c0 36.261647 27.407059 66.078118 62.644706 69.872942l7.649882 0.421647c38.791529 0 70.234353-31.442824 70.234353-70.294589V237.628235zM529.468235 538.804706a150.588235 150.588235 0 0 1 150.588236 150.588235v150.588235h-542.117647v-150.588235a150.588235 150.588235 0 0 1 150.588235-150.588235h240.941176z m0 60.235294h-240.941176a90.352941 90.352941 0 0 0-90.352941 90.352941v90.352941h421.647058v-90.352941a90.352941 90.352941 0 0 0-81.679058-89.931294l-8.673883-0.421647zM649.938824 438.392471h220.822588v-60.235295H649.938824zM750.290824 639.216941h120.470588v-60.235294h-120.470588zM750.290824 839.981176h120.470588v-60.235294h-120.470588z"  /></svg>