<?xml version="1.0" standalone="no"?><!DOCTYPE svg PUBLIC "-//W3C//DTD SVG 1.1//EN" "http://www.w3.org/Graphics/SVG/1.1/DTD/svg11.dtd"><svg class="icon" width="64px" height="60.24px" viewBox="0 0 1088 1024" version="1.1" xmlns="http://www.w3.org/2000/svg"><path fill="#3783d1" d="M366.72 191.872v64H230.08a6.4 6.4 0 0 0-6.4 6.4v574.208a6.4 6.4 0 0 0 6.4 6.4h691.2a6.4 6.4 0 0 0 6.4-6.4V262.272a6.4 6.4 0 0 0-6.4-6.4H783.36v-64h137.92a70.4 70.4 0 0 1 70.4 70.4v574.208a70.4 70.4 0 0 1-70.4 70.4h-691.2a70.4 70.4 0 0 1-70.4-70.4V262.272a70.4 70.4 0 0 1 70.4-70.4h136.768z"  /><path fill="#3783d1" d="M728.192 498.56l6.4 6.4v36.608l-6.4 6.4h-115.2l-4.928 49.28 2.368-1.664c2.432-1.536 4.928-2.944 7.552-4.16l7.936-3.264c9.984-3.84 21.056-5.76 33.152-5.76 25.472 0 46.656 8.512 62.72 25.408 16.256 17.024 24.512 40.32 24.512 69.056 0 28.16-10.752 51.2-32.192 69.248a106.688 106.688 0 0 1-69.248 23.808c-24.32 0-45.568-6.784-63.04-20.096a80.32 80.32 0 0 1-32.64-60.8l6.4-6.848h40.704l6.4 5.568c1.536 12.352 6.08 20.992 13.696 26.56 6.784 4.928 16.576 7.68 28.8 7.68 13.44 0 24.64-4.096 33.6-12.16a42.368 42.368 0 0 0 13.248-32.64c0-15.36-4.032-27.392-11.584-35.904-7.04-8.256-17.856-12.352-32.704-12.352a56.96 56.96 0 0 0-25.6 5.056 39.168 39.168 0 0 0-17.792 16.896l-5.568 3.264h-38.592l-6.4-7.04 13.824-142.72 6.4-5.76h154.176z m-218.688 0l6.4 6.4v253.568l-6.4 6.4h-41.472l-6.4-6.4-0.064-190.08-10.432 7.04a155.52 155.52 0 0 1-25.088 11.968l-14.08 4.672-8.128-6.144v-41.216l4.8-6.208c10.816-2.688 22.336-7.488 34.368-14.144 12.608-7.68 22.72-15.552 35.264-25.856h31.232zM663.808 191.872v64H486.592v-64zM395.968 149.12v147.968h64V149.12zM691.328 149.12v147.968h64V149.12zM191.616 417.408h768v-64h-768z"  /></svg>