<?xml version="1.0" standalone="no"?><!DOCTYPE svg PUBLIC "-//W3C//DTD SVG 1.1//EN" "http://www.w3.org/Graphics/SVG/1.1/DTD/svg11.dtd"><svg class="icon" width="64px" height="60.24px" viewBox="0 0 1088 1024" version="1.1" xmlns="http://www.w3.org/2000/svg"><path fill="#3783d1" d="M205.184 760h672v128h-672zM669.184 136l144 576h-544l144-576h256z m-48 48h-160l-112 464h384l-112-464z"  /><path fill="#3783d1" d="M687.68 210.24l101.504 405.696-137.728 79.616 9.472 16.448h-220.8l308.224-177.92-32-55.36-371.328 214.4 10.88 18.88H269.184l36.096-144.512 18.688 32.256 387.968-224-32-55.424-365.568 211.008 48.256-193.344 26.048 44.992 299.008-172.736z m117.632 470.272l7.872 31.488h-62.4l54.528-31.488z m-136.128-544.512l12.608 50.624-20.288-35.072L366.72 321.664l46.464-185.664h256z"  /></svg>