<?xml version="1.0" standalone="no"?><!DOCTYPE svg PUBLIC "-//W3C//DTD SVG 1.1//EN" "http://www.w3.org/Graphics/SVG/1.1/DTD/svg11.dtd"><svg class="icon" width="64px" height="60.24px" viewBox="0 0 1088 1024" version="1.1" xmlns="http://www.w3.org/2000/svg"><path fill="#3783d1" d="M704.832 128a64 64 0 0 1 43.968 110.464L512.96 461.696v354.304l-192 144V461.696L85.12 238.464a64 64 0 0 1-7.616-84.288l5.12-6.208A64 64 0 0 1 129.216 128h575.68z m162.432 512l45.248 45.248-90.496 90.496 90.496 90.56-45.248 45.248-90.56-90.56-90.496 90.56-45.248-45.248 90.496-90.56-90.496-90.496 45.248-45.248 90.496 90.496L867.264 640z m-162.432-448H129.152l255.808 242.24v397.696l64-48V434.24L704.832 192z"  fill-opacity=".9" /></svg>