<?xml version="1.0" standalone="no"?><!DOCTYPE svg PUBLIC "-//W3C//DTD SVG 1.1//EN" "http://www.w3.org/Graphics/SVG/1.1/DTD/svg11.dtd"><svg class="icon" width="64px" height="64.00px" viewBox="0 0 1024 1024" version="1.1" xmlns="http://www.w3.org/2000/svg"><path fill="#3783d1" d="M875.038118 617.411765l-36.984471 35.056941-83.425882-87.823059v304.308706h-50.959059V561.874824l-83.124706 90.895058-37.647059-34.454588 117.579294-128.542118a36.141176 36.141176 0 0 1 52.886589-0.481882l121.675294 128.120471z m-375.265883 98.665411h50.959059v-51.019294h-407.792941v-50.959058h356.833882V563.2H142.938353v-407.792941h662.648471v305.814588h51.019294V152.576a48.188235 48.188235 0 0 0-48.188236-48.188235H140.167529a48.188235 48.188235 0 0 0-48.188235 48.188235v515.312941a48.188235 48.188235 0 0 0 48.188235 48.188235h308.645647v50.959059H295.875765v50.959059h356.833882v-50.959059h-152.997647v-50.959059z"  /></svg>