<?xml version="1.0" standalone="no"?><!DOCTYPE svg PUBLIC "-//W3C//DTD SVG 1.1//EN" "http://www.w3.org/Graphics/SVG/1.1/DTD/svg11.dtd"><svg class="icon" width="64px" height="60.24px" viewBox="0 0 1088 1024" version="1.1" xmlns="http://www.w3.org/2000/svg"><path fill="#3783d1" d="M513.728 64a448 448 0 1 1 0 896 448 448 0 0 1 0-896z m0 64a384 384 0 1 0 0 768 384 384 0 0 0 0-768z m147.968 190.784l45.248 45.248L558.976 512l147.968 147.968-45.248 45.248-147.968-147.968-147.968 147.968-45.248-45.248L468.48 512 320.512 364.032l45.248-45.248 147.968 147.968 147.968-147.968z"  fill-opacity=".9" /></svg>