<?xml version="1.0" standalone="no"?><!DOCTYPE svg PUBLIC "-//W3C//DTD SVG 1.1//EN" "http://www.w3.org/Graphics/SVG/1.1/DTD/svg11.dtd"><svg class="icon" width="64px" height="64.00px" viewBox="0 0 1024 1024" version="1.1" xmlns="http://www.w3.org/2000/svg"><path fill="#3783d1" d="M844.920471 125.289412a30.117647 30.117647 0 0 1 30.117647 30.117647l0.060235 271.058823a30.117647 30.117647 0 0 1-30.117647 30.117647h-722.82353a30.117647 30.117647 0 0 1-30.117647-30.117647v-271.058823a30.117647 30.117647 0 0 1 30.117647-30.117647h722.82353z m-30.117647 60.235294h-662.588236l0.060236 210.823529h662.588235v-210.823529z m-391.529412 75.294118v60.235294h-180.705883v-60.235294h180.705883z m421.707294 256a30.117647 30.117647 0 0 1 30.117647 30.117647v271.058823a30.117647 30.117647 0 0 1-30.117647 30.117647h-722.82353a30.117647 30.117647 0 0 1-30.117647-30.117647v-271.058823a30.117647 30.117647 0 0 1 30.117647-30.117647h722.82353z m-30.117647 60.235294h-662.588235v210.823529h662.588235v-210.823529z m-391.529412 75.294117v60.235294h-180.705882v-60.235294h180.705882z"  fill-opacity=".81" /></svg>