<?xml version="1.0" standalone="no"?><!DOCTYPE svg PUBLIC "-//W3C//DTD SVG 1.1//EN" "http://www.w3.org/Graphics/SVG/1.1/DTD/svg11.dtd"><svg class="icon" width="64px" height="64.00px" viewBox="0 0 1024 1024" version="1.1" xmlns="http://www.w3.org/2000/svg"><path fill="#3783d1" d="M827.271529 177.392941v501.940706H204.8V177.392941h622.471529z m-60.235294 60.235294H265.035294v381.470118h501.940706V237.628235z"  /><path fill="#3783d1" d="M483.930353 127.216941h60.235294v80.293647h-60.235294zM483.930353 649.276235h60.235294v80.293647h-60.235294z"  /><path fill="#3783d1" d="M188.114824 782.516706l349.063529-93.545412 15.661176 58.187294-349.123764 93.545412z"  /><path fill="#3783d1" d="M840.583529 782.516706L491.52 688.971294l-15.661176 58.187294 349.123764 93.545412z"  /><path fill="#3783d1" d="M469.232941 388.216471h200.764235v-40.176942H469.232941zM469.232941 508.687059h200.764235v-40.176941H469.232941zM348.762353 388.216471h80.293647v-40.176942H348.762353zM348.762353 508.687059h80.293647v-40.176941H348.762353z"  /></svg>