<?xml version="1.0" standalone="no"?><!DOCTYPE svg PUBLIC "-//W3C//DTD SVG 1.1//EN" "http://www.w3.org/Graphics/SVG/1.1/DTD/svg11.dtd"><svg class="icon" width="64px" height="64.00px" viewBox="0 0 1024 1024" version="1.1" xmlns="http://www.w3.org/2000/svg"><path fill="#3783d1" d="M731.738353 232.508235l41.080471-43.971764a420.984471 420.984471 0 0 1 97.942588 136.734117c22.708706 51.2 34.334118 106.014118 34.334117 161.430588 0 55.356235-11.625412 110.170353-34.334117 161.310118a420.984471 420.984471 0 0 1-97.942588 136.794353l-41.080471-43.971765a360.809412 360.809412 0 0 0 83.968-117.217882c19.275294-43.550118 29.214118-90.112 29.214118-136.975059 0-46.802824-9.878588-93.364706-29.214118-136.914823a360.809412 360.809412 0 0 0-83.968-117.157647z m-102.038588 106.37553l42.224941-42.947765c53.910588 52.946824 82.703059 121.253647 82.642823 190.825412-0.060235 69.511529-28.912941 137.818353-82.944 190.704941l-42.164705-43.008c43.008-42.164706 64.813176-95.171765 64.873411-147.757177 0-52.585412-21.684706-105.652706-64.63247-147.817411zM498.145882 152.636235a30.117647 30.117647 0 0 1 45.598118 25.840941v616.387765a30.117647 30.117647 0 0 1-45.598118 25.901177l-255.578353-153.419294h-114.447058a36.141176 36.141176 0 0 1-36.141177-36.141177l0.301177-289.129412a36.141176 36.141176 0 0 1 36.141176-36.141176h114.145882z m-14.637176 79.028706l-180.705882 108.42353v293.165176l180.705882 108.423529V231.664941z m-240.941177 134.505412H152.395294l-0.180706 240.941176h90.292706v-240.941176z"  fill-opacity=".9" /></svg>