<?xml version="1.0" standalone="no"?><!DOCTYPE svg PUBLIC "-//W3C//DTD SVG 1.1//EN" "http://www.w3.org/Graphics/SVG/1.1/DTD/svg11.dtd"><svg class="icon" width="64px" height="64.00px" viewBox="0 0 1024 1024" version="1.1" xmlns="http://www.w3.org/2000/svg"><path fill="#3783d1" d="M483.508706 312.621176a174.019765 174.019765 0 1 1 0 348.03953 174.019765 174.019765 0 0 1 0-347.979294z m0 58.066824a116.013176 116.013176 0 1 0 0 231.966118 116.013176 116.013176 0 0 0 0-231.966118z"  fill-opacity=".9" /><path fill="#3783d1" d="M501.097412 104.929882l315.51247 175.646118a36.141176 36.141176 0 0 1 18.552471 31.563294v349.06353a36.141176 36.141176 0 0 1-18.552471 31.563294l-315.51247 175.646117a36.141176 36.141176 0 0 1-35.177412 0l-315.512471-175.646117a36.141176 36.141176 0 0 1-18.55247-31.563294V312.139294a36.141176 36.141176 0 0 1 18.55247-31.563294l315.512471-175.646118a36.141176 36.141176 0 0 1 35.177412 0z m-17.588706 56.621177L189.861647 325.029647v323.282824l293.647059 163.478588 293.647059-163.478588V325.029647L483.508706 161.551059z"  fill-opacity=".9" /></svg>