<?xml version="1.0" standalone="no"?><!DOCTYPE svg PUBLIC "-//W3C//DTD SVG 1.1//EN" "http://www.w3.org/Graphics/SVG/1.1/DTD/svg11.dtd"><svg class="icon" width="64px" height="60.24px" viewBox="0 0 1088 1024" version="1.1" xmlns="http://www.w3.org/2000/svg"><path fill="#3783d1" d="M129.28 768l-0.128 64 768 0.896v-64L129.28 768z m-0.064-288v64h415.936v-64h-416z m0-288l-0.064 64 768 0.896v-64L129.28 192z m514.048 294.848l202.688-152a32 32 0 0 1 51.2 25.6v304a32 32 0 0 1-51.2 25.6l-202.688-152a32 32 0 0 1 0-51.2z m72.576 25.6l117.312-88v176l-117.312-88z"  fill-opacity=".9" /></svg>