<?xml version="1.0" standalone="no"?><!DOCTYPE svg PUBLIC "-//W3C//DTD SVG 1.1//EN" "http://www.w3.org/Graphics/SVG/1.1/DTD/svg11.dtd"><svg class="icon" width="64px" height="64.00px" viewBox="0 0 1024 1024" version="1.1" xmlns="http://www.w3.org/2000/svg"><path fill="#3783d1" d="M423.273412 245.76h120.470588v-120.470588h-120.470588v120.470588z m180.705882-120.470588v120.470588h180.705882a60.235294 60.235294 0 0 1 60.235295 60.235294v120.470588a60.235294 60.235294 0 0 1-51.742118 59.632942l41.923765 293.225411a60.235294 60.235294 0 0 1-59.632942 68.728471H191.548235a60.235294 60.235294 0 0 1-59.632941-68.668235l41.923765-293.345883a60.235294 60.235294 0 0 1-51.742118-59.632941v-120.470588a60.235294 60.235294 0 0 1 60.235294-60.235294h180.705883v-120.470589a60.235294 60.235294 0 0 1 60.235294-60.235294h120.470588a60.235294 60.235294 0 0 1 60.235294 60.235294z m128.481882 301.17647h52.224v-120.470588h-602.352941v120.470588h550.128941z m0 60.235294H234.556235l-43.008 301.176471h111.254589v-120.470588h60.235294v120.470588h90.352941v-120.470588h60.235294v120.470588h90.352941v-120.470588h60.235294v120.470588h111.254588l-43.008-301.176471z"  fill-opacity=".9" /></svg>