<?xml version="1.0" standalone="no"?><!DOCTYPE svg PUBLIC "-//W3C//DTD SVG 1.1//EN" "http://www.w3.org/Graphics/SVG/1.1/DTD/svg11.dtd"><svg class="icon" width="64px" height="60.24px" viewBox="0 0 1088 1024" version="1.1" xmlns="http://www.w3.org/2000/svg"><path fill="#3783d1" d="M542.272 541.696h152.64a118.72 118.72 0 1 0 0-59.392H542.272v-237.44h152.64a118.72 118.72 0 1 0 0-59.392H521.28a38.4 38.4 0 0 0-38.4 38.4v258.432H330.24a118.72 118.72 0 1 0 0 59.392h152.64v258.432a38.4 38.4 0 0 0 38.4 38.4h173.632a118.72 118.72 0 1 0 0-59.392H542.272v-237.44z m267.136-89.088a59.392 59.392 0 1 1 0 118.784 59.392 59.392 0 0 1 0-118.784z m0-296.768a59.392 59.392 0 1 1 0 118.72 59.392 59.392 0 0 1 0-118.72zM215.68 571.392a59.392 59.392 0 1 1 0-118.784 59.392 59.392 0 0 1 0 118.784z m593.664 178.048a59.392 59.392 0 1 1 0 118.72 59.392 59.392 0 0 1 0-118.72z"  /></svg>