<?xml version="1.0" standalone="no"?><!DOCTYPE svg PUBLIC "-//W3C//DTD SVG 1.1//EN" "http://www.w3.org/Graphics/SVG/1.1/DTD/svg11.dtd"><svg class="icon" width="64px" height="60.24px" viewBox="0 0 1088 1024" version="1.1" xmlns="http://www.w3.org/2000/svg"><path fill="#3783d1" d="M870.272 287.616c48 0 86.912 38.976 86.912 87.04v274.752c0 48-38.912 86.976-86.912 86.976H212.16c-48 0-86.976-38.976-86.976-87.04V374.656c0-48 38.976-86.976 87.04-86.976h658.048z m0 64H212.16a22.976 22.976 0 0 0-22.976 23.04v274.752c0 12.672 10.24 22.976 23.04 22.976h658.048c12.672 0 22.912-10.304 22.912-23.04V374.656a22.976 22.976 0 0 0-22.912-22.976z m-554.304 62.016v192.384h-51.52V413.632h51.52z"  /></svg>