<?xml version="1.0" standalone="no"?><!DOCTYPE svg PUBLIC "-//W3C//DTD SVG 1.1//EN" "http://www.w3.org/Graphics/SVG/1.1/DTD/svg11.dtd"><svg class="icon" width="64px" height="60.24px" viewBox="0 0 1088 1024" version="1.1" xmlns="http://www.w3.org/2000/svg"><path d="M102.976 105.344h580.224a38.4 38.4 0 0 1 38.4 38.4V340.48a38.4 38.4 0 0 1-38.4 38.4H102.976a38.4 38.4 0 0 1-38.4-38.4V143.744a38.4 38.4 0 0 1 38.4-38.4z" fill="#303133" /><path d="M183.872 857.536v-55.168H71.68v-46.016l118.912-174.08h44.16v173.888h33.984v46.208h-33.984v55.168h-50.88z m0-101.376v-93.632l-63.04 93.632h63.04zM303.744 804.992h52.48v37.568c0 15.232-1.28 27.2-3.84 35.968a53.76 53.76 0 0 1-14.912 23.68c-7.296 7.04-16.576 12.48-27.776 16.448l-10.24-21.696c10.56-3.456 18.112-8.32 22.592-14.4a43.328 43.328 0 0 0 7.104-25.024h-25.408v-52.544zM445.248 709.632a61.248 61.248 0 0 1-29.632-23.68 61.824 61.824 0 0 1-9.216-32.96c0-20.48 7.104-37.376 21.376-50.688 14.272-13.376 34.56-20.032 60.864-20.032 26.048 0 46.272 6.656 60.672 20.032 14.4 13.312 21.632 30.208 21.632 50.688a59.776 59.776 0 0 1-37.76 56.64c15.168 6.08 26.752 15.04 34.624 26.752 7.936 11.712 11.904 25.216 11.904 40.576 0 25.28-8.064 45.824-24.256 61.696-16.128 15.808-37.568 23.68-64.384 23.68-24.96 0-45.696-6.528-62.272-19.584-19.584-15.488-29.376-36.672-29.376-63.552 0-14.848 3.712-28.48 11.072-40.896a71.04 71.04 0 0 1 34.752-28.672z m10.88-52.928c0 10.496 2.944 18.624 8.832 24.512a32.128 32.128 0 0 0 23.68 8.768c9.984 0 17.92-2.944 23.936-8.896a33.024 33.024 0 0 0 8.96-24.576 32 32 0 0 0-8.896-23.68 31.744 31.744 0 0 0-23.424-8.832 32.64 32.64 0 0 0-24.128 8.96 32.128 32.128 0 0 0-8.96 23.744z m-4.864 117.44c0 14.464 3.712 25.728 11.136 33.856 7.36 8.064 16.64 12.16 27.712 12.16 10.88 0 19.84-3.904 26.944-11.712 7.104-7.808 10.688-19.072 10.688-33.728 0-12.864-3.648-23.168-10.88-30.976a35.84 35.84 0 0 0-27.52-11.712c-12.8 0-22.4 4.48-28.672 13.312a48.64 48.64 0 0 0-9.408 28.8zM702.016 582.272c26.496 0 47.296 9.472 62.208 28.416 17.856 22.4 26.752 59.648 26.752 111.68 0 51.84-8.96 89.088-26.88 111.808-14.848 18.688-35.584 28.032-62.08 28.032-26.688 0-48.192-10.24-64.512-30.72-16.384-20.544-24.512-57.088-24.512-109.696 0-51.648 8.96-88.768 26.88-111.424 14.848-18.752 35.584-28.096 62.08-28.096z m0 43.584a26.24 26.24 0 0 0-17.024 6.08c-4.992 4.032-8.896 11.328-11.584 21.76-3.648 13.632-5.44 36.48-5.44 68.672 0 32.128 1.6 54.208 4.864 66.24 3.2 12.032 7.296 20.032 12.224 24.064a26.112 26.112 0 0 0 16.96 5.952 26.24 26.24 0 0 0 16.96-6.08c4.992-4.032 8.896-11.328 11.648-21.76 3.584-13.44 5.376-36.288 5.376-68.48 0-32.128-1.6-54.208-4.864-66.24-3.2-12.032-7.296-20.096-12.224-24.128a25.856 25.856 0 0 0-16.896-6.08zM960.576 857.536h-52.544v-198.016c-19.2 17.92-41.792 31.232-67.84 39.808v-47.68c13.696-4.48 28.608-12.992 44.672-25.536 16.064-12.48 27.072-27.136 33.088-43.84h42.624v275.2z" fill="#303313" /></svg>