<?xml version="1.0" standalone="no"?><!DOCTYPE svg PUBLIC "-//W3C//DTD SVG 1.1//EN" "http://www.w3.org/Graphics/SVG/1.1/DTD/svg11.dtd"><svg class="icon" width="64px" height="60.24px" viewBox="0 0 1088 1024" version="1.1" xmlns="http://www.w3.org/2000/svg"><path fill="#3783d1" d="M886.784 287.616a70.4 70.4 0 0 1 70.4 70.4v307.968a70.4 70.4 0 0 1-70.4 70.4h-691.2a70.4 70.4 0 0 1-70.4-70.4V358.016a70.4 70.4 0 0 1 70.4-70.4h691.2z m0 64h-691.2a6.4 6.4 0 0 0-6.4 6.4v307.968a6.4 6.4 0 0 0 6.4 6.4h691.2a6.4 6.4 0 0 0 6.4-6.4V358.016a6.4 6.4 0 0 0-6.4-6.4zM336.64 393.6v32.96h-24.704v159.36h24.704v33.024H254.336v-32.96h24.576V426.368l-24.576 0.064V393.6H336.64z m502.208 140.16l-77.952 82.432-77.888-82.432h155.84z m-77.952-137.408l77.952 82.432h-155.84l77.888-82.432z"  /></svg>