<?xml version="1.0" standalone="no"?><!DOCTYPE svg PUBLIC "-//W3C//DTD SVG 1.1//EN" "http://www.w3.org/Graphics/SVG/1.1/DTD/svg11.dtd"><svg class="icon" width="64px" height="60.24px" viewBox="0 0 1088 1024" version="1.1" xmlns="http://www.w3.org/2000/svg"><path fill="#3783d1" d="M648.64 712.768l52.8-52.8 224.64 215.232-52.864 52.8z"  /><path fill="#3783d1" d="M432.256 175.616a249.6 249.6 0 0 1 177.664 73.6 249.6 249.6 0 0 1 73.6 177.664 249.6 249.6 0 0 1-73.6 177.664 249.6 249.6 0 0 1-177.664 73.6 249.6 249.6 0 0 1-177.664-73.6 249.6 249.6 0 0 1-73.6-177.664 249.6 249.6 0 0 1 73.6-177.728 249.664 249.664 0 0 1 177.664-73.6z m0-79.616a330.88 330.88 0 1 0 0 661.76 330.88 330.88 0 0 0 0-661.76z"  /></svg>