<?xml version="1.0" standalone="no"?><!DOCTYPE svg PUBLIC "-//W3C//DTD SVG 1.1//EN" "http://www.w3.org/Graphics/SVG/1.1/DTD/svg11.dtd"><svg class="icon" width="64px" height="60.24px" viewBox="0 0 1088 1024" version="1.1" xmlns="http://www.w3.org/2000/svg"><path fill="#3783d1" d="M578.176 121.6H264.96a38.4 38.4 0 0 0-38.4 38.4v115.2a38.4 38.4 0 0 0 38.4 38.4h313.216a38.4 38.4 0 0 0 38.4-38.4V160a38.4 38.4 0 0 0-38.4-38.4zM772.544 454.4v115.2a38.4 38.4 0 0 1-38.4 38.4h-469.12a38.4 38.4 0 0 1-38.4-38.4V454.4a38.4 38.4 0 0 1 38.4-38.4h469.12a38.4 38.4 0 0 1 38.4 38.4zM928.576 748.8v115.2a38.4 38.4 0 0 1-38.4 38.4H264.96a38.4 38.4 0 0 1-38.4-38.4v-115.2a38.4 38.4 0 0 1 38.4-38.4h625.216a38.4 38.4 0 0 1 38.4 38.4zM160.576 96v832h-64v-832z"  /></svg>