<?xml version="1.0" standalone="no"?><!DOCTYPE svg PUBLIC "-//W3C//DTD SVG 1.1//EN" "http://www.w3.org/Graphics/SVG/1.1/DTD/svg11.dtd"><svg class="icon" width="64px" height="60.24px" viewBox="0 0 1088 1024" version="1.1" xmlns="http://www.w3.org/2000/svg"><path fill="#3783d1" d="M824.576 720a104.32 104.32 0 0 1 104 104 104.32 104.32 0 0 1-104 104 104.32 104.32 0 0 1-104-104 104.32 104.32 0 0 1 104-104z m0 64a40.32 40.32 0 0 0-40 40 40.32 40.32 0 0 0 40 40 40.32 40.32 0 0 0 40-40 40.32 40.32 0 0 0-40-40z m-173.312 5.312v69.376H96.576v-69.376h554.688zM512.576 408A104.32 104.32 0 0 1 616.576 512a104.32 104.32 0 0 1-104 104A104.32 104.32 0 0 1 408.576 512a104.32 104.32 0 0 1 104-104z m0 64A40.32 40.32 0 0 0 472.576 512a40.32 40.32 0 0 0 40 40A40.32 40.32 0 0 0 552.576 512a40.32 40.32 0 0 0-40-40z m-173.312 5.312v69.376H96.576V477.312h242.688z m589.312 0v69.376h-242.688V477.312h242.688zM200.576 96a104.32 104.32 0 0 1 104 104A104.32 104.32 0 0 1 200.576 304a104.32 104.32 0 0 1-104-104A104.32 104.32 0 0 1 200.576 96z m0 64a40.32 40.32 0 0 0-40 40 40.32 40.32 0 0 0 40 40 40.32 40.32 0 0 0 40-40 40.32 40.32 0 0 0-40-40z m728 5.312v69.376H373.888V165.312h554.688z" /></svg>