<?xml version="1.0" standalone="no"?><!DOCTYPE svg PUBLIC "-//W3C//DTD SVG 1.1//EN" "http://www.w3.org/Graphics/SVG/1.1/DTD/svg11.dtd"><svg class="icon" width="64px" height="64.00px" viewBox="0 0 1024 1024" version="1.1" xmlns="http://www.w3.org/2000/svg"><path fill="#3783d1" d="M360.327529 139.504941H258.650353a36.141176 36.141176 0 0 0-36.141177 36.141177v22.046117H91.979294v64.210824h130.529882v15.48047a36.141176 36.141176 0 0 0 36.141177 36.141177h101.677176a36.141176 36.141176 0 0 0 36.141177-36.141177v-15.48047h478.569412V197.692235H396.468706v-22.046117a36.141176 36.141176 0 0 0-36.141177-36.141177zM343.100235 260.216471H275.877647V192.933647h67.222588v67.222588z m263.529412 139.986823h101.797647a36.141176 36.141176 0 0 1 36.141177 36.141177v21.985882h130.469647v64.271059H744.508235v15.48047a36.141176 36.141176 0 0 1-36.141176 36.141177h-101.737412a36.141176 36.141176 0 0 1-36.141176-36.141177v-15.48047H91.979294V458.270118h478.509177v-21.985883a36.141176 36.141176 0 0 1 36.141176-36.141176z m17.287529 120.651294h67.222589V453.571765h-67.222589v67.222588z m-263.589647 139.023059H258.650353a36.141176 36.141176 0 0 0-36.141177 36.141177v21.985882H91.979294v64.210823h130.529882v15.540706a36.141176 36.141176 0 0 0 36.141177 36.141177h101.677176a36.141176 36.141176 0 0 0 36.141177-36.141177v-15.48047h478.569412v-64.271059H396.468706v-21.985882a36.141176 36.141176 0 0 0-36.141177-36.141177z m-17.227294 120.591059H275.877647V713.185882h67.222588v67.222589z"  /></svg>