<?xml version="1.0" standalone="no"?><!DOCTYPE svg PUBLIC "-//W3C//DTD SVG 1.1//EN" "http://www.w3.org/Graphics/SVG/1.1/DTD/svg11.dtd"><svg class="icon" width="64px" height="60.24px" viewBox="0 0 1088 1024" version="1.1" xmlns="http://www.w3.org/2000/svg"><path fill="#3783d1" d="M351.36 414.08a70.4 70.4 0 0 1 70.4-70.4h332.8a70.4 70.4 0 0 1 70.4 70.4v195.84a70.4 70.4 0 0 1-70.4 70.4h-332.8a70.4 70.4 0 0 1-70.4-70.4V414.08z m64 0v195.84a6.4 6.4 0 0 0 6.4 6.4h332.8a6.4 6.4 0 0 0 6.4-6.4V414.08a6.4 6.4 0 0 0-6.4-6.4h-332.8a6.4 6.4 0 0 0-6.4 6.4zM278.848 920.832V103.168h-64v817.664z" /></svg>