<?xml version="1.0" standalone="no"?><!DOCTYPE svg PUBLIC "-//W3C//DTD SVG 1.1//EN" "http://www.w3.org/Graphics/SVG/1.1/DTD/svg11.dtd"><svg class="icon" width="64px" height="60.24px" viewBox="0 0 1088 1024" version="1.1" xmlns="http://www.w3.org/2000/svg"><path fill="#3783d1" d="M513.344 64a448 448 0 1 1 0 896 448 448 0 0 1 0-896z m0 64a384 384 0 1 0 0 768 384 384 0 0 0 0-768z m0 576a38.4 38.4 0 1 1 0 76.8 38.4 38.4 0 0 1 0-76.8z m0-447.616a155.328 155.328 0 0 1 155.2 155.2c0 68.352-52.48 121.728-105.408 143.296a29.056 29.056 0 0 0-17.792 27.008V640h-64v-58.112c0-38.912 23.552-72.256 57.472-86.208 37.312-15.168 65.728-49.664 65.728-84.096 0-50.24-40.96-91.2-91.2-91.2s-91.2 40.96-91.2 91.2h-64a155.328 155.328 0 0 1 155.2-155.2z"  fill-opacity=".9" /></svg>