<?xml version="1.0" standalone="no"?><!DOCTYPE svg PUBLIC "-//W3C//DTD SVG 1.1//EN" "http://www.w3.org/Graphics/SVG/1.1/DTD/svg11.dtd"><svg class="icon" width="64px" height="60.24px" viewBox="0 0 1088 1024" version="1.1" xmlns="http://www.w3.org/2000/svg"><path fill="#3783d1" d="M545.152 64v65.728a288 288 0 0 1 256 286.272V704l57.6 76.8a32 32 0 0 1-25.6 51.2h-163.2a160 160 0 0 1-313.6 0h-163.2a32 32 0 0 1-25.6-51.2l57.6-76.8V416a288 288 0 0 1 256-286.272V64h64z m58.56 768h-181.12a96 96 0 0 0 181.12 0zM513.152 192a224 224 0 0 0-224 224v309.312l-32 42.688h512l-32-42.688V416a224 224 0 0 0-224-224z"  fill-opacity=".9" /></svg>