<?xml version="1.0" standalone="no"?><!DOCTYPE svg PUBLIC "-//W3C//DTD SVG 1.1//EN" "http://www.w3.org/Graphics/SVG/1.1/DTD/svg11.dtd"><svg class="icon" width="64px" height="64.00px" viewBox="0 0 1024 1024" version="1.1" xmlns="http://www.w3.org/2000/svg"><path fill="#3783d1" d="M221.605647 200.824471a391.529412 391.529412 0 0 1 553.682824 553.682823l-42.586353-42.586353a331.294118 331.294118 0 1 0-468.510118 0l-42.586353 42.586353a391.529412 391.529412 0 0 1 0-553.682823z"  /><path fill="#3783d1" d="M370.688 349.906824a180.705882 180.705882 0 1 1 255.518118 255.518117l-28.370824-28.310588a140.528941 140.528941 0 1 0-198.77647 0l-28.370824 28.310588a180.705882 180.705882 0 0 1 0-255.518117z"  /><path fill="#3783d1" d="M498.447059 553.562353l22.226823 24.214588 220.822589 240.941177 46.260705 50.477176H209.136941l46.260706-50.477176 220.822588-240.941177 22.226824-24.214588z m0 89.148235l-152.515765 166.249412h304.911059l-152.395294-166.249412z"  /></svg>