<?xml version="1.0" standalone="no"?><!DOCTYPE svg PUBLIC "-//W3C//DTD SVG 1.1//EN" "http://www.w3.org/Graphics/SVG/1.1/DTD/svg11.dtd"><svg class="icon" width="64px" height="60.24px" viewBox="0 0 1088 1024" version="1.1" xmlns="http://www.w3.org/2000/svg"><path fill="#3783d1" d="M609.152 128a32 32 0 0 1 32 32V320h-64V192h-448v640h448v-128h64v160a32 32 0 0 1-32 32h-512a32 32 0 0 1-32-32v-704a32 32 0 0 1 32-32z m156.096 163.008l198.336 198.4a32 32 0 0 1 0 45.248l-198.4 198.336-45.184-45.248L863.68 544H385.152v-64h478.528L720 336.256l45.248-45.248z"  fill-opacity=".9" /></svg>