<?xml version="1.0" standalone="no"?><!DOCTYPE svg PUBLIC "-//W3C//DTD SVG 1.1//EN" "http://www.w3.org/Graphics/SVG/1.1/DTD/svg11.dtd"><svg class="icon" width="64px" height="60.24px" viewBox="0 0 1088 1024" version="1.1" xmlns="http://www.w3.org/2000/svg"><path fill="#3783d1" d="M833.728 128a64 64 0 0 1 64 64v640a64 64 0 0 1-64 64h-640a64 64 0 0 1-64-64V512h64v146.752l192-192L750.976 832h82.752V192h-320V128h320z m-448 429.248l-192 192V832h466.752L385.728 557.248z m256-301.248a128 128 0 1 1 0 256 128 128 0 0 1 0-256z m0 64a64 64 0 1 0 0 128 64 64 0 0 0 0-128zM358.528 129.536l45.248 45.248-90.496 90.496 90.496 90.496-45.248 45.248-90.496-90.496-90.496 90.496-45.312-45.248 90.56-90.496-90.56-90.496 45.312-45.248 90.496 90.496 90.496-90.496z"  fill-opacity=".9" /></svg>