<?xml version="1.0" standalone="no"?><!DOCTYPE svg PUBLIC "-//W3C//DTD SVG 1.1//EN" "http://www.w3.org/Graphics/SVG/1.1/DTD/svg11.dtd"><svg class="icon" width="64px" height="60.24px" viewBox="0 0 1088 1024" version="1.1" xmlns="http://www.w3.org/2000/svg"><path fill="#3783d1" d="M886.784 160.64c38.208 0 69.12 30.976 69.12 69.12v564.48a69.12 69.12 0 0 1-69.12 69.12h-691.2a69.12 69.12 0 0 1-69.12-69.12V229.76c0-38.144 30.976-69.12 69.12-69.12h691.2z m0 61.44h-691.2a7.68 7.68 0 0 0-7.68 7.68v564.48c0 4.16 3.456 7.68 7.68 7.68l96.896-0.064 315.904-303.424a69.12 69.12 0 0 1 93.824-1.792l192.256 171.264V229.76a7.68 7.68 0 0 0-7.68-7.68z m-235.84 320.64L381.184 801.92h505.6a7.68 7.68 0 0 0 7.68-7.68v-43.968l-233.088-207.68a7.68 7.68 0 0 0-10.432 0.192zM381.184 306.88a108.864 108.864 0 1 1-108.8 108.992c0-60.16 48.704-108.992 108.8-108.992z m0 64a44.864 44.864 0 1 0 0.192 89.792 44.864 44.864 0 0 0-0.192-89.792z"  /></svg>