<?xml version="1.0" standalone="no"?><!DOCTYPE svg PUBLIC "-//W3C//DTD SVG 1.1//EN" "http://www.w3.org/Graphics/SVG/1.1/DTD/svg11.dtd"><svg class="icon" width="64px" height="60.24px" viewBox="0 0 1088 1024" version="1.1" xmlns="http://www.w3.org/2000/svg"><path fill="#3783d1" d="M890.176 141.056a70.4 70.4 0 0 1 70.4 70.4v601.088a70.4 70.4 0 0 1-70.4 70.4h-755.2a70.4 70.4 0 0 1-70.4-70.4V211.456a70.4 70.4 0 0 1 70.4-70.4h755.2zM361.28 481.92l-232.704 232.576v97.984a6.4 6.4 0 0 0 6.4 6.4h562.048L370.368 482.048a6.4 6.4 0 0 0-9.088-0.064z m528.896-276.928h-755.2a6.4 6.4 0 0 0-6.4 6.4V624l187.456-187.328a70.4 70.4 0 0 1 99.52 0l0.768 0.768 369.728 381.44h104.128a6.4 6.4 0 0 0 6.4-6.4V211.456a6.4 6.4 0 0 0-6.4-6.4z m-167.04 41.152a127.552 127.552 0 1 1 0 255.168 127.552 127.552 0 0 1 0-255.168z m0 64a63.552 63.552 0 1 0 0 127.168 63.552 63.552 0 0 0 0-127.168z" /></svg>