<?xml version="1.0" standalone="no"?><!DOCTYPE svg PUBLIC "-//W3C//DTD SVG 1.1//EN" "http://www.w3.org/Graphics/SVG/1.1/DTD/svg11.dtd"><svg class="icon" width="64px" height="64.00px" viewBox="0 0 1024 1024" version="1.1" xmlns="http://www.w3.org/2000/svg"><path fill="#3783d1" d="M694.332235 125.289412a30.117647 30.117647 0 0 1 30.117647 30.117647v331.294117a60.235294 60.235294 0 0 1 60.235294 60.235295v301.17647a60.235294 60.235294 0 0 1-60.235294 60.235294h-481.882353a60.235294 60.235294 0 0 1-60.235294-60.235294v-301.17647a60.235294 60.235294 0 0 1 60.235294-60.235295v-331.294117a30.117647 30.117647 0 0 1 30.117647-30.117647h421.647059z m30.117647 421.647059h-481.882353v301.17647h481.882353v-301.17647z m-60.235294-361.411765h-361.411764v301.17647h361.411764v-301.17647z m-210.823529 120.470588v60.235294h-120.470588v-60.235294h120.470588z m180.705882 0v60.235294h-120.470588v-60.235294h120.470588z"  fill-opacity=".9" /></svg>