<?xml version="1.0" standalone="no"?><!DOCTYPE svg PUBLIC "-//W3C//DTD SVG 1.1//EN" "http://www.w3.org/Graphics/SVG/1.1/DTD/svg11.dtd"><svg class="icon" width="64px" height="64.00px" viewBox="0 0 1024 1024" version="1.1" xmlns="http://www.w3.org/2000/svg"><path fill="#3783d1" d="M820.585412 177.392941v311.235765h-60.235294V237.628235H258.409412v501.940706h250.940235v60.235294H198.174118V177.392941z"  /><path fill="#3783d1" d="M732.521412 550.068706l-43.610353 43.610353 17.769412 53.187765 53.187764 17.769411 43.670589-43.610353 42.586352 42.586353-69.933176 69.993412-102.881882-34.334118-14.275765-4.758588-4.758588-14.275765-28.370824-85.172705-5.903059-17.648942 69.933177-69.933176z"  /><path fill="#3783d1" d="M729.449412 666.804706l-141.974588 141.914353-42.586353-42.586353 141.974588-141.974588z"  /><path fill="#3783d1" d="M388.939294 147.275294h240.941177v80.293647h-240.941177zM348.762353 348.039529h321.234823v60.235295H348.762353zM348.762353 468.510118h240.941176v60.235294h-240.941176zM348.762353 588.980706h160.647529v60.235294H348.762353z"  /></svg>