<?xml version="1.0" standalone="no"?><!DOCTYPE svg PUBLIC "-//W3C//DTD SVG 1.1//EN" "http://www.w3.org/Graphics/SVG/1.1/DTD/svg11.dtd"><svg class="icon" width="64px" height="64.00px" viewBox="0 0 1024 1024" version="1.1" xmlns="http://www.w3.org/2000/svg"><path fill="#3783d1" d="M622.772706 511.036235c60.175059 16.564706 125.771294 1.505882 171.429647-44.212706a174.923294 174.923294 0 0 0 48.609882-150.829176l-63.60847 63.608471a90.352941 90.352941 0 0 1-127.759059 0l-25.6-25.539765a90.352941 90.352941 0 0 1 0-127.759059L689.513412 162.635294a174.923294 174.923294 0 0 0-150.889412 48.609882 175.405176 175.405176 0 0 0-44.152471 171.429648l9.276236 33.852235-349.605647 349.605647 85.172706 85.172706L588.980706 501.76l33.731765 9.336471z m173.477647-369.965176l-127.819294 127.819294a30.117647 30.117647 0 0 0 0 42.586353l25.6 25.539765a30.117647 30.117647 0 0 0 42.586353 0l127.759059-127.759059c12.047059 18.010353 21.383529 37.225412 28.069647 57.103059 28.069647 83.124706 9.637647 177.754353-55.657412 243.049411a235.640471 235.640471 0 0 1-230.038588 59.632942L281.901176 893.891765a60.235294 60.235294 0 0 1-85.172705 0l-85.172706-85.172706a60.235294 60.235294 0 0 1 0-85.172706l324.848941-324.848941a235.640471 235.640471 0 0 1 59.632941-230.038588c65.295059-65.295059 159.984941-83.727059 243.109647-55.657412 19.877647 6.686118 39.092706 16.082824 57.103059 28.069647z"  fill-opacity=".9" /></svg>