<?xml version="1.0" standalone="no"?><!DOCTYPE svg PUBLIC "-//W3C//DTD SVG 1.1//EN" "http://www.w3.org/Graphics/SVG/1.1/DTD/svg11.dtd"><svg class="icon" width="64px" height="64.00px" viewBox="0 0 1024 1024" version="1.1" xmlns="http://www.w3.org/2000/svg"><path fill="#3784d1" d="M640 640a42.666667 42.666667 0 0 1 4.992 85.034667L640 725.333333H384a42.666667 42.666667 0 0 1-4.992-85.034666L384 640h256z m128-128a42.666667 42.666667 0 0 1 4.992 85.034667L768 597.333333H256a42.666667 42.666667 0 0 1-4.992-85.034666L256 512h512z m-128-128a42.666667 42.666667 0 0 1 4.992 85.034667L640 469.333333H384a42.666667 42.666667 0 0 1-4.992-85.034666L384 384h256z m128-128a42.666667 42.666667 0 0 1 4.992 85.034667L768 341.333333H256a42.666667 42.666667 0 0 1-4.992-85.034666L256 256h512z"  /></svg>