<?xml version="1.0" standalone="no"?><!DOCTYPE svg PUBLIC "-//W3C//DTD SVG 1.1//EN" "http://www.w3.org/Graphics/SVG/1.1/DTD/svg11.dtd"><svg class="icon" width="64px" height="64.00px" viewBox="0 0 1024 1024" version="1.1" xmlns="http://www.w3.org/2000/svg"><path fill="#3784d1" d="M564.608 256c80.341333 0 142.848 63.616 142.848 146.304 0 37.290667-24.277333 77.525333-58.922667 102.016 46.08 21.930667 76.8 69.504 76.8 125.056C725.333333 705.834667 667.477333 768 592.810667 768H341.333333V256z m21.205333 294.485333H424.448v138.581334h161.365333c29.952 0 54.186667-30.933333 54.186667-69.290667 0-38.314667-24.234667-69.290667-54.186667-69.290667z m-25.728-217.301333H424.448v138.581333h135.637333c33.28 0 60.16-30.933333 60.16-69.290666 0-38.314667-26.88-69.290667-60.16-69.290667z"  /></svg>