<?xml version="1.0" standalone="no"?><!DOCTYPE svg PUBLIC "-//W3C//DTD SVG 1.1//EN" "http://www.w3.org/Graphics/SVG/1.1/DTD/svg11.dtd"><svg class="icon" width="64px" height="60.24px" viewBox="0 0 1088 1024" version="1.1" xmlns="http://www.w3.org/2000/svg"><path fill="#3783d1" d="M512.576 206.528c-203.648 0-377.6 126.72-448 305.472a481.664 481.664 0 0 0 448 305.472c203.648 0 377.6-126.72 448-305.472a481.664 481.664 0 0 0-448-305.472z m0 509.12a203.712 203.712 0 0 1 0-407.296 203.712 203.712 0 0 1 0 407.296z m0-325.824c-67.584 0-122.24 54.592-122.24 122.176s54.656 122.24 122.24 122.24 122.24-54.656 122.24-122.24-54.656-122.24-122.24-122.24z" /></svg>