<?xml version="1.0" standalone="no"?><!DOCTYPE svg PUBLIC "-//W3C//DTD SVG 1.1//EN" "http://www.w3.org/Graphics/SVG/1.1/DTD/svg11.dtd"><svg class="icon" width="64px" height="64.00px" viewBox="0 0 1024 1024" version="1.1" xmlns="http://www.w3.org/2000/svg"><path fill="#3783d1" d="M509.349647 177.392941a271.058824 271.058824 0 0 1 271.058824 271.058824v391.529411h-542.117647v-391.529411a271.058824 271.058824 0 0 1 271.058823-271.058824z m0 60.235294a210.823529 210.823529 0 0 0-210.823529 210.82353v331.294117h421.647058v-331.294117A210.823529 210.823529 0 0 0 520.914824 237.929412l-11.565177-0.301177z"  /><path fill="#3783d1" d="M509.349647 317.921882a110.411294 110.411294 0 1 1 0 220.882824 110.411294 110.411294 0 0 1 0-220.882824z m0 60.235294a50.176 50.176 0 1 0 0 100.412236 50.176 50.176 0 0 0 0-100.412236z"  /><path fill="#3783d1" d="M429.056 589.040941h60.235294v200.764235h-60.235294zM549.526588 589.040941h60.235294v200.764235h-60.235294zM469.232941 127.216941h80.293647v80.293647H469.232941z"  /><path fill="#3783d1" d="M188.114824 781.793882H830.644706v60.235294H188.114824zM188.114824 380.205176h80.293647v60.235295H188.114824zM750.290824 380.205176h80.293647v60.235295h-80.293647z"  /></svg>