<?xml version="1.0" standalone="no"?><!DOCTYPE svg PUBLIC "-//W3C//DTD SVG 1.1//EN" "http://www.w3.org/Graphics/SVG/1.1/DTD/svg11.dtd"><svg class="icon" width="64px" height="60.24px" viewBox="0 0 1088 1024" version="1.1" xmlns="http://www.w3.org/2000/svg"><path fill="#3783d1" d="M541.184 170.688A341.312 341.312 0 0 1 882.56 512v298.688H199.872V512a341.312 341.312 0 0 1 341.312-341.312z m0 170.624a170.688 170.688 0 1 0 0 341.376 170.688 170.688 0 0 0 0-341.376z m0 85.376a85.312 85.312 0 1 1 0 170.624 85.312 85.312 0 0 1 0-170.624z"  /><path fill="#3783d1" d="M157.184 768h768v85.312h-768z"  /><path fill="#3783d1" d="M519.872 149.312h64v64h-64zM178.56 448h64v64h-64zM861.184 448h64v64h-64z"  /></svg>