<?xml version="1.0" standalone="no"?><!DOCTYPE svg PUBLIC "-//W3C//DTD SVG 1.1//EN" "http://www.w3.org/Graphics/SVG/1.1/DTD/svg11.dtd"><svg class="icon" width="64px" height="60.24px" viewBox="0 0 1088 1024" version="1.1" xmlns="http://www.w3.org/2000/svg"><path fill="#3783d1" d="M339.008 398.848c-66.688 7.744-119.936 65.792-119.936 137.92 0 71.872 52.928 129.6 118.848 137.664v59.776c-99.648-8.256-178.304-93.632-178.304-197.44 0-101.888 75.456-185.6 172.544-196.992 24.384-114.304 124.224-199.232 243.456-199.232 119.296 0 219.136 84.928 243.52 199.232 97.088 11.328 172.48 95.104 172.48 196.992 0 103.808-78.592 189.184-178.24 197.44v-59.776c65.92-8.064 118.848-65.792 118.848-137.664 0-72.128-53.248-130.176-120-137.92l-42.304-4.928-8.96-41.728c-18.752-88-95.232-152.192-185.344-152.192-90.048 0-166.592 64.192-185.344 152.192l-8.96 41.728-42.24 4.928z m266.56 371.008V496.96h-59.52v272.896L469.12 693.248l-42.112 41.984 126.08 125.696a32 32 0 0 0 45.248 0l126.08-125.696-42.048-41.984-76.864 76.608z"  fill-opacity=".9" /></svg>