<?xml version="1.0" standalone="no"?><!DOCTYPE svg PUBLIC "-//W3C//DTD SVG 1.1//EN" "http://www.w3.org/Graphics/SVG/1.1/DTD/svg11.dtd"><svg class="icon" width="64px" height="60.24px" viewBox="0 0 1088 1024" version="1.1" xmlns="http://www.w3.org/2000/svg"><path fill="#3783d1" d="M611.648 418.048l-98.56-199.68-98.56 199.68-220.416 32 159.488 155.52-37.696 219.52 197.12-103.68 197.12 103.68-37.568-219.52L832 450.048l-220.416-32z m319.36-18.24a19.2 19.2 0 0 1 10.688 32.768L741.312 627.84l47.36 275.84a19.2 19.2 0 0 1-27.904 20.224l-247.68-130.24-247.68 130.24a19.2 19.2 0 0 1-27.904-20.224l47.36-275.84-200.448-195.328a19.2 19.2 0 0 1 10.624-32.768l276.928-40.256 123.904-250.88a19.2 19.2 0 0 1 34.432 0l123.84 250.88 276.928 40.32z"  fill-opacity=".9" /></svg>