<?xml version="1.0" standalone="no"?><!DOCTYPE svg PUBLIC "-//W3C//DTD SVG 1.1//EN" "http://www.w3.org/Graphics/SVG/1.1/DTD/svg11.dtd"><svg class="icon" width="64px" height="60.24px" viewBox="0 0 1088 1024" version="1.1" xmlns="http://www.w3.org/2000/svg"><path fill="#3783d1" d="M953.728 128.32l-22.592 61.888-261.952 716.8-20.8 56.96-35.2-49.344-203.2-284.416-283.904-175.68-58.496-36.224 65.408-21.376L891.072 148.8l62.592-20.48zM848.384 230.08L218.24 436.288l231.04 143.04 9.152 8.576 171.456 240.128L848.384 230.08z"  /><path fill="#3783d1" d="M440.896 462.912m-64 0a64 64 0 1 0 128 0 64 64 0 1 0-128 0Z"  /><path fill="#3783d1" d="M839.232 181.504l43.84 46.592L464.832 620.992l-125.44 250.88-57.216-28.608 128-256 6.72-8.96z"  /></svg>