<?xml version="1.0" standalone="no"?><!DOCTYPE svg PUBLIC "-//W3C//DTD SVG 1.1//EN" "http://www.w3.org/Graphics/SVG/1.1/DTD/svg11.dtd"><svg class="icon" width="64px" height="64.00px" viewBox="0 0 1024 1024" version="1.1" xmlns="http://www.w3.org/2000/svg"><path fill="#3783d1" d="M258.409412 488.628706v250.940235h501.940706v-110.411294h60.235294v170.646588H198.174118V488.628706h60.235294z m562.176-311.235765v311.235765h-60.235294V237.628235H258.409412v110.411294h-60.235294V177.392941h622.411294z"  /><path fill="#3783d1" d="M216.244706 531.275294l42.586353-42.646588 113.603765 113.603765-42.646589 42.586353zM646.746353 374.603294l42.586353-42.586353 113.543529 113.603765-42.586353 42.586353z"  /><path fill="#3783d1" d="M647.649882 488.628706l-27.226353 16.986353-160.647529 100.412235-30.72 19.215059V351.954824l30.72 19.275294L620.423529 471.521882l27.226353 17.046589zM571.934118 488.508235L469.232941 424.417882v128.301177L571.934118 488.508235z"  /></svg>