<?xml version="1.0" standalone="no"?><!DOCTYPE svg PUBLIC "-//W3C//DTD SVG 1.1//EN" "http://www.w3.org/Graphics/SVG/1.1/DTD/svg11.dtd"><svg class="icon" width="64px" height="64.00px" viewBox="0 0 1024 1024" version="1.1" xmlns="http://www.w3.org/2000/svg"><path fill="#3783d1" d="M232.508235 251.904a391.529412 391.529412 0 0 1 553.682824 553.682824L743.664941 763.060706a331.294118 331.294118 0 1 0-468.510117 0l-42.586353 42.586353a391.529412 391.529412 0 0 1 0-553.682824z"  /><path fill="#3783d1" d="M509.349647 267.745882A260.999529 260.999529 0 0 1 770.349176 528.745412h-40.116705a220.882824 220.882824 0 0 0-441.765647 0h-40.116706A260.999529 260.999529 0 0 1 509.349647 267.745882z"  /><path fill="#3783d1" d="M509.349647 609.039059m-80.293647 0a80.293647 80.293647 0 1 0 160.587294 0 80.293647 80.293647 0 1 0-160.587294 0Z"  /><path fill="#3783d1" d="M529.408 588.980706V428.333176h-40.116706V588.980706z"  /></svg>