<?xml version="1.0" standalone="no"?><!DOCTYPE svg PUBLIC "-//W3C//DTD SVG 1.1//EN" "http://www.w3.org/Graphics/SVG/1.1/DTD/svg11.dtd"><svg class="icon" width="64px" height="64.00px" viewBox="0 0 1024 1024" version="1.1" xmlns="http://www.w3.org/2000/svg"><path fill="#3783d1" d="M188.114824 167.333647h200.764235c44.393412 0 80.353882 35.960471 80.353882 80.353882v200.764236H268.408471a80.293647 80.293647 0 0 1-80.293647-80.293647V167.333647zM268.408471 528.745412H469.232941v200.82447c0 44.333176-35.960471 80.293647-80.353882 80.293647H188.114824v-200.764235c0-44.393412 35.960471-80.353882 80.293647-80.353882zM629.820235 167.333647h200.824471v200.824471c0 44.333176-35.960471 80.293647-80.353882 80.293647H549.526588V247.687529c0-44.393412 35.960471-80.353882 80.293647-80.353882zM549.526588 528.745412h200.764236c44.393412 0 80.353882 35.960471 80.353882 80.353882v200.764235h-200.824471a80.293647 80.293647 0 0 1-80.293647-80.293647V528.745412z"  /></svg>