<?xml version="1.0" standalone="no"?><!DOCTYPE svg PUBLIC "-//W3C//DTD SVG 1.1//EN" "http://www.w3.org/Graphics/SVG/1.1/DTD/svg11.dtd"><svg class="icon" width="64px" height="64.00px" viewBox="0 0 1024 1024" version="1.1" xmlns="http://www.w3.org/2000/svg"><path fill="#3784d1" d="M128 554.666667h85.333333v-85.333334H128v85.333334z m0 170.666666h85.333333v-85.333333H128v85.333333z m85.333333 170.666667v-85.333333H128a85.333333 85.333333 0 0 0 85.333333 85.333333zM128 384h85.333333V298.666667a85.333333 85.333333 0 0 0-85.12 78.933333L128 384z m512 512a85.333333 85.333333 0 0 0 85.12-78.933333L725.333333 810.666667h-85.333333v85.333333z m170.666667-768H384a85.333333 85.333333 0 0 0-85.333333 85.333333v426.666667a85.333333 85.333333 0 0 0 85.333333 85.333333h426.666667c46.933333 0 85.333333-38.4 85.333333-85.333333V213.333333c0-46.933333-38.4-85.333333-85.333333-85.333333z m-341.333334 768h85.333334v-85.333333h-85.333334v85.333333z m-170.666666 0h85.333333v-85.333333H298.666667v85.333333z"  /></svg>