<?xml version="1.0" standalone="no"?><!DOCTYPE svg PUBLIC "-//W3C//DTD SVG 1.1//EN" "http://www.w3.org/Graphics/SVG/1.1/DTD/svg11.dtd"><svg class="icon" width="64px" height="64.00px" viewBox="0 0 1024 1024" version="1.1" xmlns="http://www.w3.org/2000/svg"><path fill="#3784d1" d="M384 298.666667H298.666667v85.333333h85.333333V298.666667z m0 170.666666H298.666667v85.333334h85.333333v-85.333334z m0-341.333333a85.333333 85.333333 0 0 0-85.333333 85.333333h85.333333V128z m170.666667 512h-85.333334v85.333333h85.333334v-85.333333z m256-512v85.333333h85.333333c0-46.933333-38.4-85.333333-85.333333-85.333333z m-256 0h-85.333334v85.333333h85.333334V128zM384 725.333333v-85.333333H298.666667a85.333333 85.333333 0 0 0 85.333333 85.333333z m426.666667-170.666666h85.333333v-85.333334h-85.333333v85.333334z m0-170.666667h85.333333V298.666667h-85.333333v85.333333z m0 341.333333c46.933333 0 85.333333-38.4 85.333333-85.333333h-85.333333v85.333333zM213.333333 298.666667a85.333333 85.333333 0 0 0-85.333333 85.333333v426.666667a85.333333 85.333333 0 0 0 85.333333 85.333333h426.666667a85.333333 85.333333 0 0 0 85.12-78.933333L725.333333 810.666667H213.333333V298.666667z m426.666667-85.333334h85.333333V128h-85.333333v85.333333z m0 512h85.333333v-85.333333h-85.333333v85.333333z"  /></svg>