<?xml version="1.0" standalone="no"?><!DOCTYPE svg PUBLIC "-//W3C//DTD SVG 1.1//EN" "http://www.w3.org/Graphics/SVG/1.1/DTD/svg11.dtd"><svg class="icon" width="64px" height="60.24px" viewBox="0 0 1088 1024" version="1.1" xmlns="http://www.w3.org/2000/svg"><path fill="#3783d1" d="M893.184 96a64 64 0 0 1 64 64v704a64 64 0 0 1-64 64h-704a64 64 0 0 1-64-64v-704a64 64 0 0 1 64-64z m0 64h-704v704h704v-704z m-352 448a542.72 542.72 0 0 1 256.96 65.28c19.648 10.496 31.04 31.36 31.04 53.632V800h-64v-71.68a478.272 478.272 0 0 0-224-56.32 478.272 478.272 0 0 0-224 56.32v71.68h-64v-73.088c0-22.208 11.52-43.136 31.104-53.632A542.72 542.72 0 0 1 541.184 608z m0-384a160 160 0 1 1 0 320 160 160 0 0 1 0-320z m0 64a96 96 0 1 0 0 192 96 96 0 0 0 0-192z" /></svg>