<?xml version="1.0" standalone="no"?><!DOCTYPE svg PUBLIC "-//W3C//DTD SVG 1.1//EN" "http://www.w3.org/Graphics/SVG/1.1/DTD/svg11.dtd"><svg class="icon" width="64px" height="60.24px" viewBox="0 0 1088 1024" version="1.1" xmlns="http://www.w3.org/2000/svg"><path fill="#3783d1" d="M541.184 96a224 224 0 1 1 0 448 224 224 0 0 1 0-448z m0 64a160 160 0 1 0 0 320 160 160 0 0 0 0-320z m0 448c136.576 0 265.6 31.168 381.632 86.592a61.44 61.44 0 0 1 34.368 55.808V896a32 32 0 0 1-32 32h-768a32 32 0 0 1-32-32v-145.6a61.44 61.44 0 0 1 34.368-55.808A882.304 882.304 0 0 1 541.184 608z m0 64c-125.824 0-244.8 28.544-352 79.36v112.64h704v-112.64a818.24 818.24 0 0 0-352-79.36z" /></svg>