<?xml version="1.0" standalone="no"?><!DOCTYPE svg PUBLIC "-//W3C//DTD SVG 1.1//EN" "http://www.w3.org/Graphics/SVG/1.1/DTD/svg11.dtd"><svg class="icon" width="64px" height="60.24px" viewBox="0 0 1088 1024" version="1.1" xmlns="http://www.w3.org/2000/svg"><path fill="#3783d1" d="M927.488 94.72a320 320 0 0 1 0 452.544l-45.248-45.248a256 256 0 0 0 0-362.048l45.248-45.248z m-90.496 90.496a192 192 0 0 1 0 271.552l-45.248-45.248a128 128 0 0 0 0-181.056z m-103.808 135.808a224 224 0 1 1-448 0 224 224 0 0 1 448 0z m-64 0a160 160 0 1 0-320 0 160 160 0 0 0 320 0z m221.632 374.528a61.44 61.44 0 0 1 34.368 55.808v145.664a32 32 0 0 1-32 32h-768a32 32 0 0 1-32-32V751.36a61.44 61.44 0 0 1 34.368-55.808 882.24 882.24 0 0 1 381.632-86.528c136.576 0 265.664 31.168 381.632 86.528z m-381.632-22.528c-125.824 0-244.8 28.48-352 79.36v112.64h704v-112.64a818.24 818.24 0 0 0-352-79.36z" /></svg>