<?xml version="1.0" standalone="no"?><!DOCTYPE svg PUBLIC "-//W3C//DTD SVG 1.1//EN" "http://www.w3.org/Graphics/SVG/1.1/DTD/svg11.dtd"><svg class="icon" width="64px" height="64.00px" viewBox="0 0 1024 1024" version="1.1" xmlns="http://www.w3.org/2000/svg"><path fill="#3783d1" d="M269.974588 457.788235c0 120.832 102.339765 205.402353 213.534118 205.402353 111.435294 0 213.534118-84.570353 213.534118-205.402353h68.487529c0 137.517176-119.446588 251.181176-251.602824 270.697412v132.156235H447.969882v-132.156235c-132.156235-19.516235-246.482824-133.12-246.482823-270.757647z m213.534118-392.734117a150.829176 150.829176 0 0 1 151.009882 151.009882l-0.421647 241.664a150.708706 150.708706 0 1 1-301.598117 0V216.003765A150.949647 150.949647 0 0 1 483.508706 65.054118z m0 60.235294c-50.115765 0-90.774588 40.538353-90.774588 90.714353V457.788235a90.533647 90.533647 0 1 0 181.067294 0l0.481882-241.724235c0-50.236235-40.538353-90.774588-90.774588-90.774588z"  /><path fill="#3783d1" d="M363.821176 812.935529h239.375059v65.234824H363.821176z"  /></svg>