<?xml version="1.0" standalone="no"?><!DOCTYPE svg PUBLIC "-//W3C//DTD SVG 1.1//EN" "http://www.w3.org/Graphics/SVG/1.1/DTD/svg11.dtd"><svg class="icon" width="64px" height="60.24px" viewBox="0 0 1088 1024" version="1.1" xmlns="http://www.w3.org/2000/svg"><path fill="#3783d1" d="M897.088 256l0.064-64-768-0.896v64L897.088 256z m0 288v-64H481.152v64h416z m0 288l0.064-64-768-0.896v64L897.088 832zM383.04 537.152l-202.688 152a32 32 0 0 1-51.2-25.6v-304a32 32 0 0 1 51.2-25.6l202.688 152a32 32 0 0 1 0 51.2z m-72.576-25.6L193.152 599.552v-176l117.312 88z"  fill-opacity=".9" /></svg>