<?xml version="1.0" standalone="no"?><!DOCTYPE svg PUBLIC "-//W3C//DTD SVG 1.1//EN" "http://www.w3.org/Graphics/SVG/1.1/DTD/svg11.dtd"><svg class="icon" width="64px" height="60.24px" viewBox="0 0 1088 1024" version="1.1" xmlns="http://www.w3.org/2000/svg"><path fill="#3783d1" d="M128.576 96v793.6a6.4 6.4 0 0 0 6.4 6.4h793.6v64h-793.6a70.4 70.4 0 0 1-70.4-70.4V96h64z m291.2 417.664l16.256 19.072 86.528 101.696 305.92-111.04 21.824 60.16-326.784 118.656-20.928 7.616-14.4-16.96L403.52 593.28l-148.672 74.112-28.48-57.28L397.376 524.8l22.4-11.136z m316.8-399.36l46.464 44.16-247.232 260.48-21.248 22.4-23.104-20.352-112.768-99.264-117.376 99.584-41.408-48.768 138.432-117.44 21.056-17.92 20.736 18.304 110.4 97.024 226.112-238.144z"  /></svg>