<?xml version="1.0" standalone="no"?><!DOCTYPE svg PUBLIC "-//W3C//DTD SVG 1.1//EN" "http://www.w3.org/Graphics/SVG/1.1/DTD/svg11.dtd"><svg class="icon" width="64px" height="60.24px" viewBox="0 0 1088 1024" version="1.1" xmlns="http://www.w3.org/2000/svg"><path fill="#3783d1" d="M544.576 96v245.312h207.424a70.4 70.4 0 0 1 70.4 70.4v200.576a70.4 70.4 0 0 1-70.4 70.4l-207.424-0.064V928h-64v-245.376H273.152a70.4 70.4 0 0 1-70.4-70.4V411.776a70.4 70.4 0 0 1 70.4-70.4h207.36L480.64 96h64z m-64 309.312H273.152a6.4 6.4 0 0 0-6.4 6.4v200.576a6.4 6.4 0 0 0 6.4 6.4l207.36-0.064V405.312z m271.424 0H544.64v213.312h207.424a6.4 6.4 0 0 0 6.4-6.4V411.776a6.4 6.4 0 0 0-6.4-6.4z" /></svg>