<?xml version="1.0" standalone="no"?><!DOCTYPE svg PUBLIC "-//W3C//DTD SVG 1.1//EN" "http://www.w3.org/Graphics/SVG/1.1/DTD/svg11.dtd"><svg class="icon" width="64px" height="60.24px" viewBox="0 0 1088 1024" version="1.1" xmlns="http://www.w3.org/2000/svg"><path fill="#3783d1" d="M822.4 612.288a70.4 70.4 0 0 1-70.4 70.4H273.152a70.4 70.4 0 0 1-70.4-70.4V411.712a70.4 70.4 0 0 1 70.4-70.4h478.848a70.4 70.4 0 0 1 70.4 70.4v200.576z m-64 0V411.712a6.4 6.4 0 0 0-6.4-6.4H273.152a6.4 6.4 0 0 0-6.4 6.4v200.576a6.4 6.4 0 0 0 6.4 6.4h478.848a6.4 6.4 0 0 0 6.4-6.4zM480.576 96v832h64v-832z" /></svg>