<?xml version="1.0" standalone="no"?><!DOCTYPE svg PUBLIC "-//W3C//DTD SVG 1.1//EN" "http://www.w3.org/Graphics/SVG/1.1/DTD/svg11.dtd"><svg class="icon" width="64px" height="64.00px" viewBox="0 0 1024 1024" version="1.1" xmlns="http://www.w3.org/2000/svg"><path fill="#3783d1" d="M466.522353 86.497882a30.117647 30.117647 0 0 1 33.972706 0l372.615529 254.795294c9.637647 6.686118 13.974588 17.588706 12.950588 28.009412v234.736941a29.997176 29.997176 0 0 1-12.950588 27.949177l-372.615529 254.795294a30.117647 30.117647 0 0 1-33.972706 0l-372.615529-254.795294a29.997176 29.997176 0 0 1-12.830118-28.732235V370.085647a29.997176 29.997176 0 0 1 12.830118-28.732235z m221.424941 431.164236l-178.898823 122.337882v178.898824l309.669647-211.727059-130.770824-89.509647z m-408.877176 0L148.178824 607.171765l309.609411 211.727059v-178.898824l-178.778353-122.277647z m204.438588-139.806118L324.427294 486.701176l159.021177 108.784942 159.141647-108.784942-159.081412-108.845176z m351.35247 39.333647L733.304471 486.701176l101.556705 69.451295V417.189647z m-702.58447 0.060235v138.842353L233.712941 486.701176 132.276706 417.249882z m325.632-262.806588L148.299294 366.230588l130.710588 89.449412 178.898824-122.337882v-178.898824z m51.2 0v178.898824l178.838588 122.277647 130.770824-89.389177-309.609412-211.787294z"  fill-opacity=".9" /></svg>