<?xml version="1.0" standalone="no"?><!DOCTYPE svg PUBLIC "-//W3C//DTD SVG 1.1//EN" "http://www.w3.org/Graphics/SVG/1.1/DTD/svg11.dtd"><svg t="1740987890677" class="icon" viewBox="0 0 1024 1024" version="1.1" xmlns="http://www.w3.org/2000/svg" p-id="6881" width="64" height="64" xmlns:xlink="http://www.w3.org/1999/xlink"><path d="M518.4 304c67.2 0 121.6 54.4 121.6 121.6v396.8a121.6 121.6 0 0 1-121.6 121.6H121.6a121.6 121.6 0 0 1-121.6-121.6v-396.8c0-67.2 54.4-121.6 121.6-121.6h396.8z m57.6 121.6a57.6 57.6 0 0 0-57.6-57.6H121.6a57.6 57.6 0 0 0-57.6 57.6v396.8a57.6 57.6 0 0 0 57.6 57.6h396.8a57.6 57.6 0 0 0 57.6-57.6v-396.8z" p-id="6882" fill="#0c6dcf"></path><path d="M758.016 459.968a32 32 0 0 0-44.032 46.464l127.808 121.408a31.872 31.872 0 0 0 22.208 8.768c8 0 16-2.88 22.208-8.768l127.808-121.408a32 32 0 0 0-44.032-46.464L896 530.304V432a352 352 0 0 0-352-352H512a32 32 0 0 0 0 64h32a288 288 0 0 1 288 288v98.24l-73.984-70.272z" p-id="6883" fill="#0c6dcf"></path></svg>